<svg width="30" height="30" viewBox="0 0 30 30" fill="none" xmlns="http://www.w3.org/2000/svg">
<rect width="30" height="30" rx="6" fill="#0094CB"/>
<path fill-rule="evenodd" clip-rule="evenodd" d="M12.7477 6.66663C11.2658 6.66663 9.89537 7.45376 9.14866 8.73383L7.23409 12.0159C6.86237 12.6532 6.6665 13.3777 6.6665 14.1154V17.5C6.6665 18.8631 7.32113 20.0734 8.33317 20.8336V21.6666C8.33317 22.5871 9.07936 23.3333 9.99984 23.3333C10.9203 23.3333 11.6665 22.5871 11.6665 21.6666H18.3332C18.3332 22.5871 19.0794 23.3333 19.9998 23.3333C20.9203 23.3333 21.6665 22.5871 21.6665 21.6666V20.8336C22.6785 20.0734 23.3332 18.8631 23.3332 17.5V14.1154C23.3332 13.3777 23.1373 12.6532 22.7656 12.0159L20.851 8.73383C20.1043 7.45376 18.7339 6.66663 17.2519 6.66663H12.7477ZM20.6323 11.6666H9.36737L10.5883 9.57362C11.0363 8.80557 11.8586 8.33329 12.7477 8.33329H17.2519C18.1411 8.33329 18.9634 8.80557 19.4114 9.57362L20.6323 11.6666ZM11.2498 17.5C11.9402 17.5 12.4998 16.9403 12.4998 16.25C12.4998 15.5596 11.9402 15 11.2498 15C10.5595 15 9.99984 15.5596 9.99984 16.25C9.99984 16.9403 10.5595 17.5 11.2498 17.5ZM18.7498 17.5C19.4402 17.5 19.9998 16.9403 19.9998 16.25C19.9998 15.5596 19.4402 15 18.7498 15C18.0595 15 17.4998 15.5596 17.4998 16.25C17.4998 16.9403 18.0595 17.5 18.7498 17.5Z" fill="white"/>
</svg>
