<svg width="106" height="106" viewBox="0 0 106 106" fill="none" xmlns="http://www.w3.org/2000/svg">
<rect x="1.57143" y="1.57143" width="102.857" height="102.857" rx="51.4286" fill="url(#paint0_linear_21_12513)"/>
<rect x="1.57143" y="1.57143" width="102.857" height="102.857" rx="51.4286" stroke="#8FDED6" stroke-width="2.85714"/>
<path fill-rule="evenodd" clip-rule="evenodd" d="M53.588 29.2646C54.6426 29.5335 55.3806 30.4834 55.3806 31.5717V45.8574H67.2854C68.1257 45.8574 68.9038 46.3004 69.3328 47.023C69.7617 47.7456 69.778 48.6408 69.3756 49.3785L55.0899 75.569C54.5687 76.5245 53.466 77.0049 52.4114 76.736C51.3567 76.4671 50.6187 75.5172 50.6187 74.4289V60.1432H38.714C37.8736 60.1432 37.0955 59.7002 36.6666 58.9776C36.2376 58.255 36.2213 57.3598 36.6237 56.6221L50.9094 30.4316C51.4306 29.4761 52.5333 28.9957 53.588 29.2646Z" fill="white"/>
<defs>
<linearGradient id="paint0_linear_21_12513" x1="-16.5533" y1="150.166" x2="103" y2="150.166" gradientUnits="userSpaceOnUse">
<stop stop-color="#0094CB"/>
<stop offset="1" stop-color="#96DCCB"/>
</linearGradient>
</defs>
</svg>
