<svg width="30" height="30" viewBox="0 0 30 30" fill="none" xmlns="http://www.w3.org/2000/svg">
<rect width="30" height="30" rx="6" fill="#0094CB"/>
<path fill-rule="evenodd" clip-rule="evenodd" d="M6.6665 10.8333C6.6665 8.53211 8.53198 6.66663 10.8332 6.66663H19.1665C21.4677 6.66663 23.3332 8.53211 23.3332 10.8333V15.8333C23.3332 18.1345 21.4677 20 19.1665 20H16.6665V21.6666H17.4998C17.9601 21.6666 18.3332 22.0397 18.3332 22.5C18.3332 22.9602 17.9601 23.3333 17.4998 23.3333H12.4998C12.0396 23.3333 11.6665 22.9602 11.6665 22.5C11.6665 22.0397 12.0396 21.6666 12.4998 21.6666H13.3332V20H10.8332C8.53198 20 6.6665 18.1345 6.6665 15.8333V10.8333ZM10.8332 8.33329C9.45246 8.33329 8.33317 9.45258 8.33317 10.8333V15.8333C8.33317 17.214 9.45246 18.3333 10.8332 18.3333H19.1665C20.5472 18.3333 21.6665 17.214 21.6665 15.8333V10.8333C21.6665 9.45258 20.5472 8.33329 19.1665 8.33329H10.8332Z" fill="white"/>
</svg>
