<svg width="137" height="92" viewBox="0 0 137 92" fill="none" xmlns="http://www.w3.org/2000/svg">
<path fill-rule="evenodd" clip-rule="evenodd" d="M37.6438 48.2286C45.5762 44.4625 52.4453 44.4491 60.5474 48.1986C72.3123 53.6414 74.1008 62.0406 76.0581 73.4253C72.7471 70.1479 69.3176 61.9839 63.0037 61.4487C65.4121 79.4077 57.4602 87.0103 46.4976 89.9603C56.4873 89.1816 65.8772 84.8622 72.9717 77.7938C81.0344 70.0892 85.6016 59.4032 85.6016 48.2476C85.6016 47.9932 85.5967 47.7184 85.5967 47.4694C85.5918 47.2175 85.6016 46.9486 85.6016 46.6895C85.6016 35.5398 81.0332 24.8737 72.9724 17.1763C64.5591 8.92419 54.1409 4.79834 41.7168 4.79834H19.9805V8.26526L41.7148 8.26758C41.8718 8.26758 42.0491 8.26233 42.2107 8.26233C47.4624 8.26233 52.678 9.23242 57.5747 11.1201C60.9307 12.4504 64.0918 14.2631 66.937 16.4841L66.9407 16.489L65.1599 19.1096C63.0823 22.0897 60.4397 24.656 57.4023 26.6494C53.7705 29.0304 49.8042 30.8789 45.6438 32.1244C42.0667 33.2341 39.4717 34.4921 37.543 36.5723C35.5386 38.7311 34.478 41.4902 34.0857 45.4835L34.0073 46.2898C33.3906 46.6648 32.7517 47.0844 32.157 47.5154C31.0293 48.2852 30.0339 49.2412 29.2197 50.3385L24.7581 56.9801L32.6465 55.6791C37.321 54.9091 42.2949 57.9091 45.2065 62.316C46.3657 64.038 47.1504 65.9912 47.4995 68.0371C47.6011 68.6503 47.6523 69.2764 47.6523 69.8989C47.6523 71.2782 47.4014 72.6481 46.9109 73.938C44.8367 79.3584 38.1626 84.4109 24.1189 86.6985H13.4429V48.4033H9.97314V90.1731H24.3298C67.9275 83.2633 49.0693 49.4628 32.0903 52.2614C33.0425 50.8444 36.1738 48.9253 37.6438 48.23V48.2286ZM37.5251 45.8223C38.1528 39.4375 40.6492 37.2937 46.657 35.4321C54.9036 32.8772 63.0852 28.3207 68.0178 21.0469C70.1858 26.5747 68.3662 32.9749 62.6467 35.3584C70.0859 38.1807 79.4429 40.1749 81.4795 49.903C79.2544 48.5302 77.4128 47.1908 74.7351 45.8301C65.7278 41.2534 57.917 41.1013 48.6755 44.3627C49.2808 42.0449 50.1562 39.9423 49.5312 37.6464C46.1248 39.3599 43.1816 44.1097 37.5251 45.8223ZM63.4729 45.7739L63.4692 45.7749C66.8521 46.2494 70.1448 47.317 73.1643 48.9126V48.9175C74.7268 49.7283 76.2539 50.6351 77.719 51.614C78.2161 51.9348 78.7217 52.2601 79.6641 52.8419L81.6353 54.0583C81.1934 57.0166 80.3813 59.921 79.238 62.6864C78.8638 63.5857 78.4536 64.4683 78.0076 65.3353C77.3679 62.4502 76.3706 59.6459 75.0591 56.9957C72.5261 52.0944 68.4529 48.1478 63.4729 45.7739ZM71.9187 73.9183C71.4753 74.3942 71.0176 74.8635 70.5461 75.326C68.6294 77.213 66.5234 78.9202 64.2742 80.3901C66.0063 76.5696 66.9065 72.4105 66.9065 68.2117C66.9065 67.9343 66.9028 67.6498 66.8967 67.3767C68.1174 68.7273 69.2576 70.1731 70.2812 71.6832C70.8394 72.465 71.3772 73.2128 71.9187 73.9183ZM81.8032 42.1292C78.7793 38.0475 74.2373 35.9167 69.6184 34.1968C70.3792 33.1702 70.9941 32.0386 71.4399 30.8414C72.0503 29.1587 72.3645 27.3741 72.3645 25.5818C72.3645 23.9137 72.0935 22.2512 71.5608 20.6707C77.2461 26.4912 80.8542 34.0453 81.8032 42.1292Z" fill="url(#paint0_linear_202_923)"/>
<path fill-rule="evenodd" clip-rule="evenodd" d="M103.152 43.8281H136.664V75.49C136.359 75.8929 135.851 76.4823 135.14 77.2579C133.712 78.6807 132.172 80.0194 130.565 81.2411C128.221 83.1196 125.707 84.8016 123.068 86.24C119.775 87.9335 116.286 89.2714 112.704 90.2019C108.461 91.3875 104.063 91.9911 99.6541 91.9911H99.512C99.2249 91.9939 98.9155 91.9995 98.6184 91.9995C89.4182 91.9995 80.4199 89.2322 72.8081 84.0679C73.9583 83.1294 75.0776 82.1221 76.1672 81.0472C79.1929 78.104 81.8345 74.75 83.9841 71.1097C88.4453 73.9675 93.644 75.4904 98.9438 75.4904C99.1299 75.4904 99.3259 75.4867 99.5088 75.4835C99.6179 75.4823 99.7461 75.4861 99.8591 75.4861C103.289 75.4861 106.695 74.9128 109.935 73.7965C112.325 73.0604 114.564 71.8926 116.54 70.3612L118.389 68.8162L118.389 57.2195H103.147V43.8281H103.152ZM72.7964 10.8923C80.7056 5.72986 89.9485 2.97949 99.394 2.97949C103.76 2.97949 108.109 3.56775 112.314 4.7262C115.82 5.67017 119.192 7.1134 122.296 8.99512C124.692 10.5085 127.017 12.201 129.206 13.9967C130.783 15.2435 132.232 16.6643 133.511 18.2203L134.874 20.0092L123.27 31.6136C123.026 31.2887 122.701 30.8417 122.294 30.2726C121.425 29.2339 120.482 28.2443 119.489 27.3251C118.044 25.9456 116.454 24.7137 114.754 23.667C112.639 22.4326 110.371 21.4441 108.026 20.745C105.218 19.8724 102.286 19.4237 99.3438 19.4237C93.9072 19.4237 88.5745 20.9446 83.9578 23.8088C81.8184 20.1902 79.1787 16.8502 76.1658 13.9191C75.0701 12.8446 73.9456 11.8369 72.7925 10.8966L72.7964 10.8923Z" fill="url(#paint1_linear_202_923)"/>
<path fill-rule="evenodd" clip-rule="evenodd" d="M14.4072 14.3268L20.4868 20.4492L22.2192 20.2145L24.498 18.5111L26.6855 20.1763L29.502 20.5837L29.8711 23.3077L31.5742 25.587L29.9092 27.7743L29.502 30.5905L26.7778 30.9596L24.498 32.663L22.3115 30.9978L20.9546 30.8015L15.3882 37.1495L15.5864 38.6123L16.8535 40.308L15.6147 41.9352L15.3115 44.0302L13.2852 44.3048L11.5894 45.572L9.9624 44.3333L7.86719 44.0302L7.59277 42.0037L6.3252 40.308L7.56445 38.6809L7.86719 36.5858L9.89404 36.3112L11.5894 35.0439L13.2163 36.2827L13.9922 36.3949L19.4395 30.1825L19.126 27.8666L17.4229 25.587L19.0879 23.3999L19.3608 21.5116L13.1206 15.2273L11.0938 15.5021L8.41016 17.5073L5.83496 15.547L2.51953 15.0675L2.08496 11.8605L0.0795898 9.177L2.04004 6.60205L2.51953 3.28674L5.72656 2.85205L8.41016 0.84668L10.9849 2.80701L14.3003 3.28674L14.7349 6.49353L16.7402 9.177L14.7798 11.7521L14.4072 14.3268Z" fill="url(#paint2_linear_202_923)"/>
<defs>
<linearGradient id="paint0_linear_202_923" x1="-4.8147" y1="130.441" x2="85.6016" y2="130.441" gradientUnits="userSpaceOnUse">
<stop stop-color="#0094CB"/>
<stop offset="1" stop-color="#96DCCB"/>
</linearGradient>
<linearGradient id="paint1_linear_202_923" x1="60.3036" y1="133.986" x2="136.664" y2="133.986" gradientUnits="userSpaceOnUse">
<stop stop-color="#0094CB"/>
<stop offset="1" stop-color="#96DCCB"/>
</linearGradient>
<linearGradient id="paint2_linear_202_923" x1="-6.07865" y1="66.667" x2="31.5742" y2="66.667" gradientUnits="userSpaceOnUse">
<stop stop-color="#0094CB"/>
<stop offset="1" stop-color="#96DCCB"/>
</linearGradient>
</defs>
</svg>
