<svg width="1112" height="782" viewBox="0 0 1112 782" fill="none" xmlns="http://www.w3.org/2000/svg">
<g opacity="0.17">
<path fill-rule="evenodd" clip-rule="evenodd" d="M243.314 397.52C312.848 364.505 373.046 364.393 444.063 397.253C547.177 444.952 562.863 518.576 580.019 618.367C551.001 589.658 520.939 518.098 465.594 513.395C486.703 670.802 416.987 737.439 320.92 763.294C411.507 755.058 488.898 719.516 552.976 656.679C626.716 584.183 663.591 495.655 663.591 390.917C663.591 286.179 626.721 197.651 552.976 125.328C479.23 53.0098 387.847 16.8507 279.014 16.8507H0.780762V765.156H126.619C508.754 704.589 343.466 408.334 194.642 432.865C202.985 420.445 230.44 403.626 243.319 397.515L243.314 397.52ZM242.27 376.424C247.774 320.461 269.655 301.673 322.31 285.355C394.586 262.963 466.286 223.028 509.535 159.273C528.534 207.73 512.591 263.825 462.458 284.719C527.659 309.45 609.678 326.933 627.53 412.2C608.021 400.168 591.881 388.427 568.413 376.499C489.474 336.376 421.035 335.043 340.013 363.63C345.296 343.326 352.994 324.884 347.509 304.766C317.654 319.755 291.846 361.417 242.27 376.429L242.27 376.424ZM469.707 376.003C520.41 402.129 550.963 434.952 571.249 474.377C582.962 497.139 590.843 521.397 597.085 547.467C601.007 539.863 604.61 532.123 607.89 524.247C617.811 500.419 624.812 475.215 628.892 448.639L611.615 437.979C603.356 432.883 598.924 430.024 594.568 427.221C582.316 419.317 570.159 411.484 554.637 403.589L554.665 403.542C524.945 388.451 497.125 379.461 469.712 376.003H469.707ZM543.733 622.691C538.993 616.552 534.276 609.949 529.381 603.098C520.279 590.356 510.377 576.49 499.689 565.353C499.862 610.932 491.556 648.504 476.726 679.445C496.062 666.829 514.388 652.037 531.698 635.059C535.834 630.988 539.849 626.87 543.733 622.691ZM630.348 344.088C621.466 272.065 591.549 209.368 540.598 155.984C550.322 185.708 549.929 217.375 539.531 245.078C535.591 255.57 530.266 265.476 523.569 274.494C564.052 289.604 603.88 308.28 630.348 344.084V344.088ZM500.068 119.277C474.695 99.5528 447.329 83.8762 417.993 72.2614C375.928 55.6069 329.586 47.2773 279.01 47.2773H31.1933V734.748H124.771C247.858 714.692 306.362 670.409 324.542 622.902C331.079 605.798 332.394 588.156 329.689 571.188C326.872 553.555 319.741 536.409 309.6 521.051C284.05 482.37 240.487 456.066 199.513 462.818L130.339 474.223L169.451 416.004C175.259 407.356 184.871 398.741 195.184 391.254C200.393 387.473 205.999 383.799 211.399 380.509L212.092 373.457C215.531 338.454 224.82 314.284 242.392 295.351C259.304 277.119 282.037 266.089 313.4 256.365C349.353 245.228 385.049 229.504 416.449 208.357C443.118 190.402 466.656 168.539 484.462 142.282L500.068 119.272V119.277Z" fill="#A9A9A9" stroke="black"/>
<path d="M817.489 358.946H1111.22V636.468C1108.55 640.029 1104.09 645.196 1097.86 651.962C1091.81 658.734 1078.44 670.311 1057.78 686.877C1037.12 703.442 1015.2 718.047 992.051 730.696C968.891 743.34 938.609 754.918 901.206 765.428C863.802 775.938 825.327 781.104 785.602 781.104C696.741 781.104 618.773 757.903 551.536 711.683C561.627 703.414 571.45 694.598 580.997 685.225C608.474 658.242 631.301 629.163 649.514 598.105C688.566 623.651 733.931 636.468 785.602 636.468C819.088 636.468 849.371 631.48 876.98 621.681C904.411 611.704 923.645 601.732 934.866 591.577L951.077 578.039V476.329H817.483V358.946H817.489ZM551.427 70.2637C618.691 24.0389 696.693 0.912476 785.605 0.912476C824.972 0.912476 862.375 6.07872 897.823 16.2287C933.265 26.5612 962.478 39.0276 985.284 53.6325C1008.08 68.2375 1028.21 82.8471 1045.84 97.452C1063.3 112.057 1075.95 124.35 1083.61 134.5L1095.54 150.177L993.833 251.887C991.694 249.037 988.846 245.121 985.282 240.132C981.541 235.144 973.345 226.589 960.701 214.301C948.055 202.19 934.158 191.507 919.193 182.241C904.228 172.976 884.636 164.426 860.229 156.592C835.832 148.754 811.068 145.015 785.602 145.015C733.829 145.015 688.391 157.781 649.29 183.448C631.104 152.549 608.347 123.611 580.978 96.7688C571.381 87.3582 561.52 78.5278 551.422 70.2637H551.427Z" fill="#A9A9A9" stroke="black"/>
</g>
</svg>
