<svg width="41" height="42" viewBox="0 0 41 42" fill="none" xmlns="http://www.w3.org/2000/svg">
<path d="M20.5519 0.967285C9.58028 0.967285 0.686523 9.86102 0.686523 20.8326C0.686523 31.8037 9.58028 40.698 20.5519 40.698C31.5229 40.698 40.4172 31.8037 40.4172 20.8326C40.4172 9.86102 31.5229 0.967285 20.5519 0.967285ZM26.3853 13.0185H23.6258C22.6512 13.0185 22.4485 13.417 22.4485 14.4249V16.8596H26.3853L26.0064 21.1349H22.4485V33.904H17.3494V21.1886H14.6974V16.8596H17.3494V13.4512C17.3494 10.2527 19.0605 8.58113 22.8548 8.58113H26.3853V13.0185Z" fill="#AAAAAA"/>
<path d="M0.580078 21.1595C0.580078 10.1293 9.52138 1.18799 20.5516 1.18799C31.5812 1.18799 40.5231 10.1293 40.5231 21.1595C40.5231 32.1892 31.5812 41.131 20.5516 41.131C9.52138 41.131 0.580078 32.1892 0.580078 21.1595ZM14.6658 21.5174H17.332V34.3007H22.4583V21.4634H26.0353L26.4162 17.1653H22.4583V14.7175C22.4583 13.7042 22.6621 13.3036 23.642 13.3036H26.4162V8.84258H22.8668C19.0523 8.84258 17.332 10.523 17.332 13.7386V17.1653H14.6658V21.5174Z" fill="#AAAAAA"/>
</svg>
