<svg width="30" height="30" viewBox="0 0 30 30" fill="none" xmlns="http://www.w3.org/2000/svg">
<rect width="30" height="30" rx="6" fill="#0094CB"/>
<path fill-rule="evenodd" clip-rule="evenodd" d="M10.8333 6.66669C8.99238 6.66669 7.5 8.15907 7.5 10V19.1667C7.5 21.4679 9.36548 23.3334 11.6667 23.3334H19.1667C21.0076 23.3334 22.5 21.841 22.5 20C22.5 18.1591 21.0076 16.6667 19.1667 16.6667V10C19.1667 8.15907 17.6743 6.66669 15.8333 6.66669H10.8333ZM12.5 20.8334V21.6667H19.1667C20.0871 21.6667 20.8333 20.9205 20.8333 20C20.8333 19.0795 20.0871 18.3334 19.1667 18.3334H15C13.6193 18.3334 12.5 19.4526 12.5 20.8334ZM10.8333 14.1667C10.8333 13.7064 11.2064 13.3334 11.6667 13.3334H15C15.4602 13.3334 15.8333 13.7064 15.8333 14.1667C15.8333 14.6269 15.4602 15 15 15H11.6667C11.2064 15 10.8333 14.6269 10.8333 14.1667ZM11.6667 10C11.2064 10 10.8333 10.3731 10.8333 10.8334C10.8333 11.2936 11.2064 11.6667 11.6667 11.6667H15C15.4602 11.6667 15.8333 11.2936 15.8333 10.8334C15.8333 10.3731 15.4602 10 15 10H11.6667Z" fill="white"/>
</svg>
