<svg width="30" height="30" viewBox="0 0 30 30" fill="none" xmlns="http://www.w3.org/2000/svg">
<rect width="30" height="30" rx="6" fill="#0094CB"/>
<path d="M14.0784 7.03462C13.6376 7.08464 12.9124 7.24406 12.481 7.38786C11.5338 7.70359 10.7273 8.14748 9.94265 8.77581C9.65193 9.01338 8.81104 9.84803 8.81104 9.9043C8.81104 9.93243 8.82041 9.92931 9.50501 9.73237C9.87075 9.62608 10.149 9.56981 10.6866 9.49479L11.39 9.39788L11.7214 9.2197L12.0558 9.04152L12.4091 9.14468L12.7654 9.24784L13.375 9.21345C13.7095 9.19469 13.9846 9.17906 13.9877 9.17594C14.0346 9.07278 14.366 8.582 14.3941 8.56949C14.4128 8.56324 14.5473 8.57574 14.6911 8.60075C14.9318 8.64452 15.013 8.64139 15.6726 8.57887L16.3916 8.5101L16.5635 8.32879C16.6573 8.22876 16.7386 8.1381 16.7448 8.12247C16.7511 8.10997 16.8855 8.00994 17.0481 7.90365L17.345 7.70671L17.6701 7.75985C18.0328 7.81612 18.3047 7.82237 18.3735 7.78174C18.436 7.7411 18.114 7.5973 17.5326 7.40349C16.6511 7.10652 15.9321 6.99398 14.9599 7.00023C14.6129 7.00336 14.2159 7.01899 14.0784 7.03462ZM16.3947 7.50352C16.5229 7.57542 16.6261 7.64107 16.6261 7.65044C16.6229 7.6692 16.004 8.14748 15.9258 8.18812C15.9071 8.20062 15.7383 8.22563 15.5538 8.24439L15.2131 8.2819L15.0599 8.18187L14.9036 8.08183L15.0849 7.97242C15.2787 7.85363 16.1353 7.37223 16.154 7.37223C16.1603 7.37223 16.2697 7.43162 16.3947 7.50352ZM13.8595 8.08496C13.9221 8.19437 13.969 8.28815 13.9627 8.29128C13.9471 8.30691 12.9749 8.56011 12.9374 8.56011C12.9186 8.56011 12.7967 8.49759 12.6685 8.42257L12.4341 8.28502L12.5372 8.21313C12.5935 8.17561 12.7092 8.08809 12.7904 8.01931L12.9405 7.8974L13.1124 7.95992L13.2812 8.02557L13.5094 7.95367C13.6313 7.91615 13.7376 7.88489 13.7376 7.88489C13.7408 7.88802 13.797 7.97555 13.8595 8.08496Z" fill="white"/>
<path d="M16.7388 8.76644L16.7201 8.9415L17.2515 9.48855C17.5422 9.78864 17.7829 10.0481 17.7829 10.07C17.7829 10.0919 17.7047 10.1481 17.611 10.1982C17.4078 10.3013 17.3515 10.2951 16.892 10.1044L16.62 9.98871L16.6357 9.79177L16.6513 9.59483L16.3262 9.46667C16.148 9.39477 15.9917 9.34475 15.9761 9.35413C15.9573 9.36351 15.9354 9.42603 15.9229 9.48855C15.9135 9.55419 15.8667 9.75738 15.826 9.93869L15.7479 10.2669L15.4228 10.3419C15.2415 10.3795 15.0945 10.4232 15.0945 10.4389C15.0945 10.4857 15.1633 10.9515 15.1696 10.9609C15.1914 10.9828 15.9854 11.1234 16.0167 11.1109C16.0355 11.1047 16.0792 10.9359 16.1105 10.7358C16.1417 10.5358 16.1793 10.3576 16.1918 10.3357C16.2074 10.3107 16.3012 10.3138 16.5513 10.3513C16.8076 10.392 16.9201 10.4263 17.0389 10.4982C17.1765 10.5827 17.214 10.592 17.4547 10.592H17.7204L17.8954 10.9421C18.0642 11.2797 18.0924 11.3173 18.5394 11.7737L19.0114 12.2488L18.9895 12.427C18.977 12.5239 18.9645 12.6083 18.9614 12.6114C18.9583 12.6177 18.7863 12.5989 18.5832 12.5708L18.2112 12.5208L17.5359 12.8584L16.8607 13.196L16.3856 13.7649C16.0386 14.1838 15.9042 14.3714 15.8792 14.4652C15.8604 14.5371 15.8291 14.6496 15.8135 14.7184C15.7791 14.8434 15.7791 14.8434 15.626 14.8434C15.5072 14.8434 15.3915 14.809 15.1571 14.7027C14.9851 14.6246 14.8319 14.5621 14.8163 14.5621C14.7569 14.5621 14.188 14.8403 14.188 14.8715C14.188 14.9372 14.3224 15.4842 14.3443 15.5092C14.3568 15.5249 14.4256 15.4624 14.5006 15.3779L14.6319 15.2185H14.8507H15.0664L15.0601 15.5061L15.0539 15.7968L15.2477 15.8531C15.4384 15.9094 15.4947 15.9531 15.7572 16.2626L15.8354 16.3533L16.1605 16.2657L16.4856 16.1751L16.8451 16.2282C17.042 16.2564 17.3859 16.3314 17.6078 16.3908C17.8298 16.4533 18.1174 16.5158 18.2487 16.5346C18.405 16.5533 18.5019 16.5846 18.5331 16.619C18.5581 16.6502 18.7238 16.8347 18.8989 17.0316L19.2146 17.3911L19.8898 17.7819C20.2587 17.9975 20.5619 18.1851 20.565 18.1976C20.565 18.2132 20.3681 18.5977 20.1305 19.0573L19.6929 19.8888L19.2177 20.1107L18.7457 20.3295L18.5675 20.8141L18.3893 21.2986L17.7047 21.7581L17.017 22.2208L16.942 22.4865C16.9014 22.6334 16.8732 22.7585 16.8795 22.7678C16.9045 22.7897 17.5391 22.6022 17.861 22.4802C20.1618 21.5925 21.928 19.7169 22.6501 17.3911C22.8971 16.5971 23.0033 15.8875 23.0033 15.031C23.0033 13.8243 22.8158 12.8896 22.3531 11.8112C22.103 11.2266 21.6873 10.5139 21.6123 10.542C21.4716 10.5952 21.2809 10.6264 20.9089 10.6545C20.6776 10.6733 20.4056 10.6952 20.3056 10.7077L20.1212 10.7264L19.9492 10.9953C19.8554 11.1422 19.771 11.2704 19.7679 11.2735C19.7617 11.2797 19.7023 11.2672 19.6366 11.2454C19.5585 11.2204 19.3459 11.0516 19.0177 10.7577C18.5456 10.3326 18.5144 10.2982 18.4612 10.1294C18.43 10.0325 18.355 9.81365 18.2924 9.64485L18.1799 9.3385L17.861 9.04465L17.5422 8.74768L17.1577 8.66953C16.9451 8.62577 16.7701 8.59138 16.7669 8.59138C16.7638 8.59138 16.7513 8.66953 16.7388 8.76644Z" fill="white"/>
<path d="M8.36093 10.8859L8.07959 10.9547L7.89828 11.2954C7.52629 12.005 7.24495 12.8365 7.10115 13.6555C7.00424 14.2151 6.96986 15.2185 7.02613 15.8C7.13866 16.9253 7.49503 18.0351 8.0452 18.9885C9.06741 20.761 10.7304 22.0864 12.6686 22.6709C13.0812 22.7991 13.7095 22.9242 14.1315 22.971C14.6348 23.0242 15.9603 22.9992 16.0134 22.9367C16.0197 22.9304 16.004 22.7116 15.979 22.4521L15.9384 21.977L16.1228 21.2267L16.3104 20.4734L16.1259 19.8294C15.954 19.2261 15.9227 19.1479 15.6602 18.6571C15.5039 18.3664 15.3757 18.1163 15.3757 18.0976C15.3757 18.082 15.4882 17.835 15.6258 17.5474C15.7633 17.2598 15.8759 17.0129 15.8759 16.9972C15.8759 16.9847 15.7602 16.9347 15.6195 16.8941C15.3694 16.8159 15.3507 16.8034 15.06 16.5127L14.7599 16.2126L14.1534 16.0751C13.8189 16 13.5188 15.9313 13.4813 15.9219C13.4344 15.9125 13.3625 15.7906 13.2031 15.453C13.0843 15.2029 12.978 14.9997 12.9624 14.9997C12.9499 14.9997 12.9374 15.1216 12.9374 15.2686V15.5343L12.853 15.5249C12.7842 15.5186 12.6717 15.3842 12.1965 14.7371L11.6245 13.9619V13.321V12.6833L11.215 12.0113C10.9868 11.6455 10.7867 11.3423 10.7648 11.3423C10.743 11.3423 10.4554 11.3923 10.1209 11.4517C9.59571 11.5455 9.44878 11.5611 9.0299 11.5611H8.54537L8.33905 11.4267L8.12961 11.2891L8.40782 11.0734C8.65478 10.8796 8.7298 10.8046 8.66415 10.814C8.64852 10.8171 8.51411 10.8484 8.36093 10.8859Z" fill="white"/>
</svg>
