<svg width="20" height="20" viewBox="0 0 20 20" fill="none" xmlns="http://www.w3.org/2000/svg">
<path d="M3.33366 5.83335C3.33366 4.45264 4.45295 3.33335 5.83366 3.33335H9.16699C9.62723 3.33335 10.0003 2.96026 10.0003 2.50002C10.0003 2.03978 9.62723 1.66669 9.16699 1.66669H5.83366C3.53247 1.66669 1.66699 3.53217 1.66699 5.83335V14.1667C1.66699 16.4679 3.53247 18.3334 5.83366 18.3334H14.167C16.4682 18.3334 18.3337 16.4679 18.3337 14.1667V10.8334C18.3337 10.3731 17.9606 10 17.5003 10C17.0401 10 16.667 10.3731 16.667 10.8334V14.1667C16.667 15.5474 15.5477 16.6667 14.167 16.6667H5.83366C4.45295 16.6667 3.33366 15.5474 3.33366 14.1667V5.83335Z" fill="#F8F8F8"/>
<path d="M11.667 2.50002C11.667 2.03978 12.0401 1.66669 12.5003 1.66669H17.5003C17.9606 1.66669 18.3337 2.03978 18.3337 2.50002V7.50002C18.3337 7.96026 17.9606 8.33335 17.5003 8.33335C17.0401 8.33335 16.667 7.96026 16.667 7.50002V4.51187L10.5896 10.5893C10.2641 10.9147 9.73651 10.9147 9.41107 10.5893C9.08563 10.2638 9.08563 9.7362 9.41107 9.41077L15.4885 3.33335H12.5003C12.0401 3.33335 11.667 2.96026 11.667 2.50002Z" fill="#F8F8F8"/>
</svg>
