<svg width="42" height="42" viewBox="0 0 42 42" fill="none" xmlns="http://www.w3.org/2000/svg">
<rect width="42" height="42" rx="8" fill="white"/>
<path d="M13 15C13 14.4477 13.4477 14 14 14H28C28.5523 14 29 14.4477 29 15C29 15.5523 28.5523 16 28 16H14C13.4477 16 13 15.5523 13 15Z" fill="#0094CB"/>
<path d="M19 21C19 20.4477 19.4477 20 20 20H28C28.5523 20 29 20.4477 29 21C29 21.5523 28.5523 22 28 22H20C19.4477 22 19 21.5523 19 21Z" fill="#0094CB"/>
<path d="M14 26C13.4477 26 13 26.4477 13 27C13 27.5523 13.4477 28 14 28H28C28.5523 28 29 27.5523 29 27C29 26.4477 28.5523 26 28 26H14Z" fill="#0094CB"/>
</svg>
