<svg width="30" height="30" viewBox="0 0 30 30" fill="none" xmlns="http://www.w3.org/2000/svg">
<rect width="30" height="30" rx="6" fill="#0094CB"/>
<path fill-rule="evenodd" clip-rule="evenodd" d="M14.6614 8.40514C14.8769 8.30937 15.1228 8.30937 15.3383 8.40514L22.8209 11.7308C22.8906 11.7599 22.9554 11.7981 23.014 11.8441C23.0557 11.8769 23.0941 11.9134 23.1285 11.953C23.256 12.0994 23.3332 12.2907 23.3332 12.5V15C23.3332 15.4602 22.9601 15.8333 22.4998 15.8333C22.0396 15.8333 21.6665 15.4602 21.6665 15V13.7823L20.8331 14.1527L20.8332 14.1666V18.6038C20.8332 19.7963 20.0701 20.855 18.9388 21.2321C16.382 22.0843 13.6177 22.0843 11.0609 21.2321C9.92957 20.855 9.1665 19.7963 9.1665 18.6038V14.1666L9.16662 14.1527L7.16139 13.2615C6.86045 13.1277 6.6665 12.8293 6.6665 12.5C6.6665 12.1707 6.86045 11.8722 7.16139 11.7385L14.6614 8.40514ZM15.3383 16.5948L19.1665 14.8934V18.6038C19.1665 19.0789 18.8625 19.5007 18.4118 19.6509C16.197 20.3892 13.8026 20.3892 11.5879 19.6509C11.1372 19.5007 10.8332 19.0789 10.8332 18.6038V14.8934L14.6614 16.5948C14.8769 16.6906 15.1228 16.6906 15.3383 16.5948Z" fill="white"/>
</svg>
