<svg width="23" height="24" viewBox="0 0 23 24" fill="none" xmlns="http://www.w3.org/2000/svg">
<path fill-rule="evenodd" clip-rule="evenodd" d="M22.8401 0.671082H3.39803C1.78078 0.671082 0.458008 1.99417 0.458008 3.6111V4.26465C0.989564 4.34588 1.58039 4.50299 2.21983 4.72972C4.23441 5.44443 6.74292 6.8572 9.43613 8.8075C11.6248 7.17676 13.639 6.01016 15.2729 5.43125C16.8688 4.86551 18.1072 4.85893 18.8003 5.52439C19.5853 6.27767 19.5539 7.7839 18.8536 9.75677C18.1386 11.7714 16.7258 14.2799 14.7758 16.9728C16.4066 19.1617 17.5729 21.176 18.1521 22.8098C18.1816 22.892 18.2088 22.9732 18.2349 23.0535H19.9001C21.5174 23.0535 22.8401 21.7307 22.8401 20.1135V0.671082ZM0.458008 13.0151C0.720179 13.3952 0.998031 13.7819 1.29062 14.1742L1.29156 14.1751L1.60548 14.5906C2.15052 15.3022 2.74292 16.0313 3.37827 16.7702C4.00203 17.4952 4.66749 18.2297 5.37059 18.9673C5.38721 18.9845 5.41418 18.987 5.43362 18.9723C5.45432 18.9566 5.45903 18.9265 5.44303 18.9058C3.48208 16.2869 2.08184 13.8922 1.39035 11.9674C0.72802 10.1256 0.716103 8.71875 1.48506 7.96579C2.05613 7.40664 3.01105 7.25485 4.25511 7.45995C5.54213 7.67226 7.13586 8.26653 8.9328 9.18821C8.23974 9.72071 7.53068 10.2974 6.81285 10.9152C6.08811 11.5387 5.35334 12.2038 4.61544 12.9072C4.59819 12.9235 4.59599 12.9508 4.61042 12.9703C4.62641 12.9913 4.65652 12.9953 4.67722 12.98C7.29611 11.0187 9.69078 9.61816 11.6154 8.92667C13.4578 8.26465 14.8646 8.25274 15.6176 9.02138C16.1764 9.59276 16.3282 10.5477 16.1234 11.7917C15.9111 13.0785 15.3165 14.6722 14.3951 16.4691C13.8633 15.7764 13.2865 15.0679 12.6691 14.3504C12.0453 13.6251 11.3792 12.89 10.6761 12.1521C10.6598 12.1351 10.6322 12.1326 10.6128 12.1467C10.5918 12.1627 10.5874 12.1928 10.6034 12.2135C12.5643 14.8327 13.9649 17.2274 14.6564 19.1523C15.2898 20.9154 15.3281 22.2795 14.656 23.0532H5.58008C5.92786 22.8124 6.28066 22.5587 6.63755 22.2921L6.6388 22.2915L7.05401 21.9779C7.76557 21.4331 8.49438 20.8404 9.23292 20.2054C9.95797 19.5816 10.6931 18.9158 11.431 18.2124C11.4479 18.1958 11.4507 18.1685 11.436 18.1491C11.42 18.1284 11.3902 18.124 11.3695 18.1397C8.7506 20.1006 6.35562 21.5015 4.43104 22.1927C3.48678 22.5323 2.65636 22.7007 1.9702 22.6806C1.07016 22.177 0.458008 21.2133 0.458008 20.1135V13.0151Z" fill="#004F91"/>
</svg>
