<svg width="41" height="41" viewBox="0 0 41 41" fill="none" xmlns="http://www.w3.org/2000/svg">
<path d="M29.4588 13.7181C29.24 13.1431 28.9782 12.7326 28.5555 12.3017C28.1329 11.8708 27.7303 11.6042 27.1669 11.3806C26.7412 11.212 26.1014 11.0115 24.9239 10.9565C23.6503 10.8973 23.2682 10.8848 20.0434 10.8848C16.8184 10.8848 16.4369 10.8973 15.1629 10.9565C13.9853 11.0115 13.346 11.212 12.9203 11.3806C12.3564 11.6042 11.9543 11.8708 11.5317 12.3017C11.1091 12.7326 10.8472 13.1431 10.6279 13.7181C10.4626 14.1516 10.2659 14.8041 10.2119 16.0047C10.154 17.3033 10.1416 17.6929 10.1416 20.9812C10.1416 24.2696 10.154 24.6591 10.2119 25.9577C10.2659 27.1584 10.4626 27.8103 10.6279 28.2444C10.8472 28.8193 11.1091 29.2298 11.5317 29.6608C11.9543 30.0917 12.3564 30.3582 12.9203 30.5818C13.346 30.7504 13.9853 30.951 15.1629 31.0059C16.4363 31.0651 16.8184 31.0777 20.0434 31.0777C23.2688 31.0777 23.6503 31.0651 24.9239 31.0059C26.1014 30.951 26.7412 30.7504 27.1669 30.5818C27.7303 30.3582 28.1329 30.0917 28.5555 29.6608C28.9782 29.2298 29.24 28.8193 29.4588 28.2444C29.6241 27.8103 29.8213 27.1584 29.8747 25.9577C29.9327 24.6591 29.9451 24.2696 29.9451 20.9812C29.9451 17.6929 29.9327 17.3033 29.8747 16.0047C29.8213 14.8041 29.6241 14.1516 29.4588 13.7181ZM20.0434 27.3055C16.6181 27.3055 13.8416 24.4738 13.8416 20.9812C13.8416 17.4887 16.6181 14.6569 20.0434 14.6569C23.469 14.6569 26.2457 17.4887 26.2457 20.9812C26.2457 24.4738 23.469 27.3055 20.0434 27.3055ZM26.4906 15.8848C25.6906 15.8848 25.0414 15.2235 25.0414 14.4072C25.0414 13.5908 25.6906 12.9295 26.4906 12.9295C27.2912 12.9295 27.9403 13.5908 27.9403 14.4072C27.9403 15.2235 27.2912 15.8848 26.4906 15.8848Z" fill="#AAAAAA"/>
<path d="M20.0435 16.896C17.82 16.896 16.0176 18.7339 16.0176 21.0012C16.0176 23.2685 17.82 25.1064 20.0435 25.1064C22.2671 25.1064 24.0695 23.2685 24.0695 21.0012C24.0695 18.7339 22.2671 16.896 20.0435 16.896Z" fill="#AAAAAA"/>
<path d="M20.0237 0.727051C9.05249 0.727051 0.158203 9.62079 0.158203 20.5924C0.158203 31.5635 9.05249 40.4578 20.0237 40.4578C30.9952 40.4578 39.889 31.5635 39.889 20.5924C39.889 9.62079 30.9952 0.727051 20.0237 0.727051ZM31.4607 25.7437C31.4045 26.966 31.2106 27.801 30.9264 28.5315C30.6328 29.2869 30.2403 29.9276 29.6021 30.5659C28.9634 31.2046 28.3227 31.5972 27.5677 31.8907C26.8372 32.1744 26.0021 32.3688 24.7798 32.4244C23.5547 32.4805 23.1636 32.4937 20.0441 32.4937C16.9253 32.4937 16.534 32.4805 15.3089 32.4244C14.0866 32.3688 13.2516 32.1744 12.5211 31.8907C11.7657 31.5972 11.1254 31.2046 10.4867 30.5659C9.84848 29.9276 9.45538 29.2869 9.16193 28.5315C8.87817 27.801 8.68381 26.966 8.6282 25.7437C8.57248 24.519 8.55933 24.1278 8.55933 21.0084C8.55933 17.8891 8.57248 17.4984 8.6282 16.2732C8.68381 15.0504 8.87817 14.2159 9.16193 13.4854C9.45538 12.7299 9.84848 12.0893 10.4867 11.451C11.1254 10.8123 11.7657 10.4197 12.5211 10.1262C13.2516 9.8425 14.0866 9.64813 15.3089 9.59247C16.534 9.53633 16.9253 9.52315 20.0441 9.52315C23.1636 9.52315 23.5547 9.53633 24.7798 9.59247C26.0021 9.64813 26.8372 9.8425 27.5677 10.1262C28.3227 10.4197 28.9634 10.8123 29.6021 11.451C30.2403 12.0893 30.6328 12.7299 30.9264 13.4854C31.2106 14.2159 31.4045 15.0504 31.4607 16.2732C31.5163 17.4984 31.5295 17.8891 31.5295 21.0084C31.5295 24.1278 31.5163 24.519 31.4607 25.7437Z" fill="#AAAAAA"/>
<path d="M0.575684 20.5639C0.575684 9.41606 9.61285 0.379395 20.7602 0.379395C31.9081 0.379395 40.9448 9.41606 40.9448 20.5639C40.9448 31.7113 31.9081 40.7485 20.7602 40.7485C9.61285 40.7485 0.575684 31.7113 0.575684 20.5639ZM15.9697 9.38729C14.7278 9.44385 13.8794 9.64133 13.1371 9.92958C12.3696 10.2278 11.7191 10.6267 11.0701 11.2757C10.4216 11.9242 10.0222 12.5752 9.72402 13.3428C9.43577 14.085 9.23824 14.933 9.18167 16.1754C9.12511 17.4202 9.11176 17.8172 9.11176 20.9867C9.11176 24.1562 9.12511 24.5536 9.18167 25.798C9.23824 27.0399 9.43577 27.8884 9.72402 28.6306C10.0222 29.3982 10.4216 30.0492 11.0701 30.6977C11.7191 31.3467 12.3696 31.7456 13.1371 32.0438C13.8794 32.3321 14.7278 32.5295 15.9697 32.5861C17.2147 32.6431 17.6121 32.6565 20.7811 32.6565C23.9506 32.6565 24.348 32.6431 25.5929 32.5861C26.8348 32.5295 27.6832 32.3321 28.4255 32.0438C29.1926 31.7456 29.8436 31.3467 30.4926 30.6977C31.141 30.0492 31.5399 29.3982 31.8382 28.6306C32.1269 27.8884 32.3239 27.0399 32.381 25.798C32.4375 24.5536 32.4509 24.1562 32.4509 20.9867C32.4509 17.8172 32.4375 17.4202 32.381 16.1754C32.3239 14.933 32.1269 14.085 31.8382 13.3428C31.5399 12.5752 31.141 11.9242 30.4926 11.2757C29.8436 10.6267 29.1926 10.2278 28.4255 9.92958C27.6832 9.64133 26.8348 9.44385 25.5929 9.38729C24.348 9.33021 23.9506 9.31686 20.7811 9.31686C17.6121 9.31686 17.2147 9.33021 15.9697 9.38729ZM16.0655 30.4858C14.9278 30.4337 14.3101 30.2437 13.8987 30.0839C13.354 29.8721 12.9654 29.6195 12.5571 29.2112C12.1488 28.8028 11.8957 28.4138 11.6838 27.869C11.5241 27.4577 11.334 26.84 11.282 25.7023C11.2259 24.4717 11.214 24.1026 11.214 20.9867C11.214 17.8708 11.2259 17.5016 11.282 16.2711C11.334 15.1334 11.5241 14.5152 11.6838 14.1044C11.8957 13.5595 12.1488 13.1706 12.5571 12.7622C12.9654 12.3539 13.354 12.1013 13.8987 11.8895C14.3101 11.7297 14.9278 11.5397 16.0655 11.4876C17.2965 11.4315 17.6651 11.4196 20.7811 11.4196C23.897 11.4196 24.2662 11.4315 25.4966 11.4876C26.6343 11.5397 27.2526 11.7297 27.6639 11.8895C28.2082 12.1013 28.5972 12.3539 29.0055 12.7622C29.4139 13.1706 29.6669 13.5595 29.8783 14.1044C30.0381 14.5152 30.2286 15.1334 30.2802 16.2711C30.3362 17.5016 30.3482 17.8708 30.3482 20.9867C30.3482 24.1026 30.3362 24.4717 30.2802 25.7023C30.2286 26.84 30.0381 27.4577 29.8783 27.869C29.6669 28.4138 29.4139 28.8028 29.0055 29.2112C28.5972 29.6195 28.2082 29.8721 27.6639 30.0839C27.2526 30.2437 26.6343 30.4337 25.4966 30.4858C24.2662 30.5419 23.8975 30.5538 20.7811 30.5538C17.6651 30.5538 17.296 30.5419 16.0655 30.4858ZM14.7889 20.9867C14.7889 24.2962 17.4716 26.9794 20.7811 26.9794C24.091 26.9794 26.7738 24.2962 26.7738 20.9867C26.7738 17.6772 24.091 14.994 20.7811 14.994C17.4716 14.994 14.7889 17.6772 14.7889 20.9867ZM25.6103 14.7573C25.6103 15.5308 26.2374 16.1575 27.0105 16.1575C27.784 16.1575 28.4111 15.5308 28.4111 14.7573C28.4111 13.9838 27.784 13.3571 27.0105 13.3571C26.2374 13.3571 25.6103 13.9838 25.6103 14.7573ZM16.8911 20.9867C16.8911 18.8383 18.6327 17.0967 20.7811 17.0967C22.9295 17.0967 24.671 18.8383 24.671 20.9867C24.671 23.1351 22.9295 24.8767 20.7811 24.8767C18.6327 24.8767 16.8911 23.1351 16.8911 20.9867Z" fill="#AAAAAA"/>
</svg>
