<svg width="30" height="30" viewBox="0 0 30 30" fill="none" xmlns="http://www.w3.org/2000/svg">
<rect width="30" height="30" rx="6" fill="#0094CB"/>
<path fill-rule="evenodd" clip-rule="evenodd" d="M7.58816 14.6273C7.79398 14.2157 8.29455 14.0488 8.70619 14.2546L15.0002 17.4016L21.2942 14.2546C21.7058 14.0488 22.2064 14.2157 22.4122 14.6273C22.618 15.039 22.4512 15.5395 22.0395 15.7454L15.3729 19.0787C15.1383 19.196 14.8621 19.196 14.6275 19.0787L7.96084 15.7454C7.54919 15.5395 7.38234 15.039 7.58816 14.6273Z" fill="white"/>
<path fill-rule="evenodd" clip-rule="evenodd" d="M7.58816 17.9607C7.79398 17.549 8.29455 17.3822 8.70619 17.588L15.0002 20.735L21.2942 17.588C21.7058 17.3822 22.2064 17.549 22.4122 17.9607C22.618 18.3723 22.4512 18.8729 22.0395 19.0787L15.3729 22.412C15.1383 22.5293 14.8621 22.5293 14.6275 22.412L7.96084 19.0787C7.54919 18.8729 7.38234 18.3723 7.58816 17.9607Z" fill="white"/>
<path fill-rule="evenodd" clip-rule="evenodd" d="M14.6275 7.58798C14.8621 7.47067 15.1383 7.47067 15.3729 7.58798L22.0395 10.9213C22.3218 11.0625 22.5002 11.351 22.5002 11.6667C22.5002 11.9823 22.3218 12.2709 22.0395 12.412L15.3729 15.7454C15.1383 15.8627 14.8621 15.8627 14.6275 15.7454L7.96084 12.412C7.67852 12.2709 7.50018 11.9823 7.50018 11.6667C7.50018 11.351 7.67852 11.0625 7.96084 10.9213L14.6275 7.58798Z" fill="white"/>
</svg>
