<svg width="63" height="56" viewBox="0 0 63 56" fill="none" xmlns="http://www.w3.org/2000/svg">
<path d="M5.46289 43.5278H7.44482C8.22046 43.5278 8.87158 43.7855 9.39673 44.3006C9.92212 44.8158 10.1848 45.4466 10.1848 46.1928C10.1848 46.939 9.92212 47.5698 9.39673 48.0864C8.87158 48.6015 8.22046 48.8592 7.44482 48.8592H5.46289V43.5278ZM7.44482 44.557H6.60718V47.8325H7.44482C7.8855 47.8325 8.26245 47.6738 8.57446 47.3565C8.88647 47.0392 9.04272 46.6522 9.04272 46.1954C9.04272 45.7385 8.89014 45.3502 8.58618 45.0329C8.28125 44.7156 7.90063 44.557 7.44482 44.557Z" fill="url(#paint0_linear_202_960)"/>
<path d="M11.2485 48.8592V43.5278H12.3931V48.8592H11.2485Z" fill="url(#paint1_linear_202_960)"/>
<path d="M16.5776 45.9668H18.6704V47.9441C18.6516 47.9694 18.6199 48.0063 18.5754 48.0545C18.5317 48.1027 18.437 48.1852 18.2898 48.3032C18.1423 48.4211 17.9868 48.5252 17.8218 48.6153C17.6567 48.7055 17.4407 48.788 17.1741 48.8629C16.9082 48.9378 16.6338 48.9745 16.3506 48.9745C15.5371 48.9745 14.8518 48.7018 14.2922 48.1585C13.7344 47.614 13.4541 46.9593 13.4541 46.1927C13.4541 45.4274 13.7344 44.7726 14.2922 44.2308C14.8518 43.6876 15.5371 43.416 16.3506 43.416C16.6313 43.416 16.8977 43.4528 17.1501 43.5251C17.4028 43.5987 17.6108 43.6876 17.7734 43.7916C17.9358 43.8956 18.0789 43.9997 18.2048 44.1038C18.3293 44.2078 18.4189 44.2954 18.4736 44.3678L18.5583 44.4794L17.8342 45.204C17.8186 45.1838 17.7988 45.1559 17.7734 45.1203C17.7468 45.0848 17.6885 45.0238 17.5984 44.9363C17.5078 44.85 17.4094 44.7738 17.3022 44.7078C17.1956 44.6418 17.0559 44.581 16.8826 44.5252C16.7087 44.4693 16.5322 44.4426 16.3506 44.4426C15.8513 44.4426 15.4355 44.6088 15.1018 44.944C14.7671 45.2789 14.5994 45.6953 14.5994 46.1927C14.5994 46.6914 14.7671 47.1076 15.1018 47.4427C15.4355 47.7765 15.8513 47.9441 16.3506 47.9441C16.5896 47.9441 16.8047 47.9085 17.002 47.8388C17.197 47.7677 17.3345 47.6967 17.4141 47.6244L17.5293 47.5279V46.8032H16.5776V45.9668Z" fill="url(#paint2_linear_202_960)"/>
<path d="M19.9224 48.8592V43.5278H21.0674V48.8592H19.9224Z" fill="url(#paint3_linear_202_960)"/>
<path d="M21.9009 43.5278H26.0869V44.557H24.5669V48.8592H23.4253V44.557H21.9009V43.5278Z" fill="url(#paint4_linear_202_960)"/>
<path d="M29.2109 46.613L28.5635 44.863L27.9141 46.613H29.2109ZM29.5908 47.6028H27.5347L27.0776 48.8591H25.8579L27.9546 43.5278H29.1704L31.2666 48.8591H30.0474L29.5908 47.6028Z" fill="url(#paint5_linear_202_960)"/>
<path d="M35.644 48.8592H32.0259V43.5278H33.1699V47.8325H35.644V48.8592Z" fill="url(#paint6_linear_202_960)"/>
<path d="M8.28149 52.8976H10.3743V54.8747C10.355 54.9001 10.3235 54.937 10.2788 54.9851C10.2358 55.0335 10.1406 55.1158 9.9939 55.2338C9.84644 55.3517 9.69019 55.4559 9.52515 55.546C9.36035 55.6362 9.14453 55.7187 8.87793 55.7935C8.61133 55.8685 8.3374 55.9052 8.05444 55.9052C7.24072 55.9052 6.55542 55.6324 5.99609 55.0892C5.43726 54.5447 5.1582 53.89 5.1582 53.1234C5.1582 52.3582 5.43726 51.7033 5.99609 51.1615C6.55542 50.6183 7.24072 50.3467 8.05444 50.3467C8.33447 50.3467 8.60132 50.3834 8.854 50.4559C9.10596 50.5294 9.31445 50.6183 9.47656 50.7223C9.6394 50.8262 9.78296 50.9305 9.9082 51.0345C10.0327 51.1385 10.1223 51.2261 10.1772 51.2985L10.2625 51.4102L9.53784 52.1348C9.52271 52.1145 9.5022 52.0865 9.47656 52.051C9.4502 52.0155 9.3916 51.9545 9.302 51.867C9.21167 51.7806 9.11255 51.7045 9.0061 51.6385C8.89941 51.5725 8.75977 51.5116 8.58594 51.4559C8.41235 51.4 8.23584 51.3732 8.05444 51.3732C7.55566 51.3732 7.1394 51.5394 6.80566 51.8746C6.4707 52.2095 6.30322 52.626 6.30322 53.1234C6.30322 53.6221 6.4707 54.0383 6.80566 54.3734C7.1394 54.7071 7.55566 54.8747 8.05444 54.8747C8.29297 54.8747 8.50879 54.8393 8.70508 54.7694C8.90088 54.6984 9.03784 54.6273 9.11768 54.5551L9.2334 54.4587V53.7339H8.28149V52.8976Z" fill="url(#paint7_linear_202_960)"/>
<path d="M13.0027 51.8798C12.6699 52.2186 12.5039 52.6335 12.5039 53.126C12.5039 53.6183 12.6699 54.032 13.0027 54.3696C13.3354 54.7059 13.7402 54.8746 14.2175 54.8746C14.6946 54.8746 15.0977 54.7059 15.4302 54.3696C15.7629 54.032 15.929 53.6183 15.929 53.126C15.929 52.6335 15.7629 52.2186 15.4302 51.8798C15.0977 51.5422 14.6946 51.3734 14.2175 51.3734C13.7402 51.3734 13.3354 51.5422 13.0027 51.8798ZM12.1599 55.0892C11.6016 54.5447 11.3223 53.89 11.3223 53.1234C11.3223 52.3582 11.6016 51.7033 12.1599 51.1615C12.7195 50.6183 13.405 50.3467 14.2175 50.3467C15.0281 50.3467 15.7126 50.6183 16.2729 51.1615C16.8315 51.7033 17.1106 52.3582 17.1106 53.1234C17.1106 53.89 16.8315 54.5447 16.2729 55.0892C15.7126 55.6323 15.0281 55.9052 14.2175 55.9052C13.405 55.9052 12.7195 55.6324 12.1599 55.0892Z" fill="url(#paint8_linear_202_960)"/>
<path d="M19.3164 55.7899L17.3374 50.4585H18.5571L19.9253 54.4181L21.2974 50.4585H22.5166L20.5361 55.7899H19.3164Z" fill="url(#paint9_linear_202_960)"/>
<path d="M24.4937 54.7632H27.3496V55.7899H23.3491V50.4585H27.272V51.4877H24.4937V52.5551H26.6611V53.5817H24.4937V54.7632Z" fill="url(#paint10_linear_202_960)"/>
<path d="M28.4082 55.7899V50.4585H30.769C31.2969 50.4585 31.7349 50.6273 32.0796 50.9662C32.4263 51.3038 32.5991 51.7188 32.5991 52.2097C32.5991 52.423 32.5645 52.6223 32.4985 52.8076C32.4312 52.9942 32.3525 53.1439 32.2627 53.2581C32.1714 53.3723 32.0796 53.4701 31.9849 53.5512C31.8906 53.6339 31.811 53.6896 31.7437 53.7188L31.6475 53.7709L32.7881 55.7899H31.5688L30.5435 53.9232H29.5537V55.7899H28.4082ZM31.457 52.2098C31.457 52.0017 31.3887 51.8293 31.2505 51.6921C31.1133 51.5564 30.9404 51.4878 30.7324 51.4878H29.5532V52.8979H30.7324C30.9404 52.8979 31.1133 52.8307 31.2505 52.6985C31.3887 52.5654 31.457 52.4027 31.457 52.2098Z" fill="url(#paint11_linear_202_960)"/>
<path d="M37.4326 50.4585H38.5742V55.7899H37.5854L34.96 52.4027V55.7899H33.8149V50.4585H34.8071L37.4326 53.8496V50.4585Z" fill="url(#paint12_linear_202_960)"/>
<path d="M42.7959 52.7822L44.6406 50.4585H45.6523V55.7899H44.5107V52.2352L42.7959 54.4181L41.0859 52.2505V55.7899H39.9414V50.4585H40.9717L42.7959 52.7822Z" fill="url(#paint13_linear_202_960)"/>
<path d="M48.165 54.7632H51.0205V55.7899H47.021V50.4585H50.9429V51.4877H48.165V52.5551H50.3335V53.5817H48.165V54.7632Z" fill="url(#paint14_linear_202_960)"/>
<path d="M55.6987 50.4585H56.8408V55.7899H55.8516L53.2261 52.4027V55.7899H52.0806V50.4585H53.0728L55.6987 53.8496V50.4585Z" fill="url(#paint15_linear_202_960)"/>
<path d="M57.6758 50.4585H61.8623V51.4877H60.3428V55.7899H59.2002V51.4877H57.6758V50.4585Z" fill="url(#paint16_linear_202_960)"/>
<path fill-rule="evenodd" clip-rule="evenodd" d="M17.7815 21.6664C21.3928 19.9518 24.5203 19.9456 28.209 21.6528C33.5652 24.1307 34.3794 27.9547 35.2705 33.1379C33.7632 31.6458 32.2017 27.9289 29.3271 27.6852C30.4238 35.8615 26.8035 39.3228 21.8125 40.666C26.3604 40.3114 30.6355 38.3448 33.8655 35.1268C37.5361 31.6191 39.6157 26.754 39.6157 21.675C39.6157 21.5592 39.6133 21.4341 39.6133 21.3207C39.6111 21.2061 39.6157 21.0837 39.6157 20.9656C39.6157 15.8895 37.5356 11.0334 33.8657 7.52893C30.0354 3.77191 25.2922 1.89355 19.6357 1.89355H9.73975V3.47198L19.6348 3.47302C19.7065 3.47302 19.7871 3.47064 19.8606 3.47064C22.2515 3.47064 24.6262 3.91229 26.8555 4.77167C28.3833 5.37738 29.8228 6.20264 31.1182 7.21381L31.1196 7.21606L30.3091 8.40912C29.363 9.76593 28.1599 10.9343 26.7771 11.8419C25.1235 12.9258 23.3179 13.7675 21.4238 14.3345C19.7949 14.8397 18.6138 15.4124 17.7354 16.3596C16.823 17.3423 16.3401 18.5986 16.1616 20.4166L16.126 20.7837C15.8452 20.9544 15.5542 21.1454 15.2834 21.3417C14.77 21.6921 14.3169 22.1274 13.9463 22.627L11.9148 25.6508L15.5063 25.0584C17.6345 24.7078 19.8989 26.0737 21.2246 28.0801C21.7524 28.8641 22.1096 29.7534 22.2686 30.6848C22.3149 30.9639 22.3381 31.249 22.3381 31.5324C22.3381 32.1603 22.2239 32.784 22.0005 33.3713C21.0562 35.8391 18.0176 38.1394 11.624 39.1808H6.76318V21.7459H5.18359V40.7628H11.7197C31.5688 37.6169 22.9834 22.2283 15.2529 23.5024C15.6865 22.8573 17.1123 21.983 17.7815 21.6664ZM17.7275 20.5709C18.0132 17.664 19.1497 16.6879 21.8848 15.8404C25.6394 14.6772 29.3643 12.6027 31.6101 9.29114C32.5972 11.8078 31.7686 14.7217 29.1646 15.8068C32.5518 17.0918 36.8115 17.9997 37.7388 22.4286C36.7258 21.8036 35.8875 21.1939 34.6685 20.5744C30.5674 18.4908 27.0112 18.4214 22.804 19.9063C23.0796 18.8511 23.478 17.8938 23.1934 16.8486C21.6426 17.6286 20.303 19.7912 17.7275 20.5709ZM29.541 20.5488L29.5391 20.5493C31.0793 20.7653 32.5784 21.2514 33.9531 21.9778V21.98C34.6646 22.3492 35.3599 22.762 36.0269 23.2077C36.2529 23.3538 36.4834 23.5019 36.9124 23.7667L37.8098 24.3206C37.6086 25.6674 37.2388 26.9897 36.7183 28.2487C36.5479 28.6581 36.3613 29.0599 36.1582 29.4547C35.8669 28.1412 35.4128 26.8644 34.8159 25.6579C33.6626 23.4264 31.8081 21.6296 29.541 20.5488ZM33.386 33.3624C33.1841 33.579 32.9758 33.7927 32.7612 34.0032C31.8887 34.8624 30.9297 35.6396 29.9058 36.3088C30.6943 34.5694 31.104 32.6758 31.104 30.7642C31.104 30.638 31.1025 30.5084 31.0996 30.3841C31.6553 30.999 32.1743 31.6572 32.6406 32.3448C32.8945 32.7007 33.1396 33.0411 33.386 33.3624ZM37.8862 18.8895C36.5095 17.0312 34.4417 16.0611 32.3389 15.278C32.6851 14.8106 32.9651 14.2954 33.168 13.7504C33.4458 12.9843 33.5889 12.1718 33.5889 11.3558C33.5889 10.5964 33.4656 9.83942 33.2231 9.11987C35.8115 11.7698 37.4541 15.209 37.8862 18.8895Z" fill="url(#paint17_linear_202_960)"/>
<path fill-rule="evenodd" clip-rule="evenodd" d="M47.606 19.6629H62.8628V34.0779C62.7241 34.2614 62.4927 34.5297 62.1689 34.8828C61.519 35.5305 60.8179 36.14 60.0864 36.6962C59.019 37.5515 57.8745 38.3173 56.6729 38.9721C55.1738 39.7431 53.5852 40.3522 51.9546 40.7759C50.0227 41.3156 48.0205 41.5905 46.0132 41.5905H45.9485C45.8179 41.5917 45.677 41.5942 45.5415 41.5942C41.353 41.5942 37.2563 40.3344 33.7908 37.9832C34.3145 37.5559 34.8242 37.0973 35.3203 36.6079C36.6978 35.2679 37.9004 33.741 38.8789 32.0836C40.9102 33.3847 43.2769 34.078 45.6899 34.078C45.7744 34.078 45.8638 34.0764 45.947 34.075C45.9966 34.0743 46.0552 34.076 46.1064 34.076C47.668 34.076 49.2188 33.8151 50.6938 33.3069C51.782 32.9717 52.8013 32.4401 53.7012 31.7428L54.543 31.0394L54.5427 25.7597H47.6035V19.6629H47.606ZM33.7856 4.66797C37.3862 2.31763 41.5945 1.06543 45.8948 1.06543C47.8823 1.06543 49.8623 1.33325 51.7773 1.86066C53.3733 2.29041 54.9087 2.94751 56.3215 3.8042C57.4126 4.49323 58.4712 5.26379 59.4675 6.0813C60.1855 6.64893 60.8452 7.29578 61.4272 8.00427L62.0479 8.8186L56.7651 14.1019C56.6538 13.954 56.5059 13.7505 56.3208 13.4913C55.9248 13.0184 55.4958 12.5679 55.0437 12.1494C54.3857 11.5214 53.6616 10.9606 52.8879 10.484C51.9248 9.922 50.8926 9.47192 49.8247 9.15369C48.5464 8.75641 47.2114 8.55212 45.8721 8.55212C43.3967 8.55212 40.9688 9.24451 38.8669 10.5486C37.8931 8.90106 36.6912 7.38049 35.3193 6.04596C34.8208 5.55676 34.3086 5.09802 33.7837 4.66992L33.7856 4.66797Z" fill="url(#paint18_linear_202_960)"/>
<path fill-rule="evenodd" clip-rule="evenodd" d="M7.20215 6.23145L9.97021 9.01892L10.7588 8.91199L11.7964 8.13647L12.7922 8.89465L14.0745 9.08014L14.2427 10.3203L15.0181 11.358L14.2598 12.3538L14.0745 13.636L12.8342 13.804L11.7964 14.5795L10.8008 13.8214L10.1831 13.7321L7.64893 16.6222L7.73926 17.2881L8.31592 18.0602L7.75195 18.801L7.61377 19.7548L6.69141 19.8798L5.91943 20.4568L5.17871 19.8928L4.22461 19.7548L4.09961 18.8322L3.52246 18.0602L4.08691 17.3193L4.22461 16.3655L5.14746 16.2405L5.91943 15.6636L6.66016 16.2275L7.01318 16.2786L9.49316 13.4502L9.35059 12.3959L8.5752 11.358L9.33325 10.3623L9.45752 9.50256L6.61646 6.64148L5.6936 6.7666L4.47192 7.6795L3.29932 6.78699L1.79004 6.56873L1.59229 5.10864L0.679199 3.8869L1.57178 2.7146L1.79004 1.2052L3.25 1.00732L4.47192 0.0942383L5.64404 0.986816L7.15356 1.2052L7.35156 2.66516L8.2644 3.8869L7.37183 5.05927L7.20215 6.23145Z" fill="url(#paint19_linear_202_960)"/>
<defs>
<linearGradient id="paint0_linear_202_960" x1="4.5396" y1="51.3737" x2="10.1848" y2="51.3737" gradientUnits="userSpaceOnUse">
<stop stop-color="#0094CB"/>
<stop offset="1" stop-color="#96DCCB"/>
</linearGradient>
<linearGradient id="paint1_linear_202_960" x1="11.0247" y1="51.3737" x2="12.3931" y2="51.3737" gradientUnits="userSpaceOnUse">
<stop stop-color="#0094CB"/>
<stop offset="1" stop-color="#96DCCB"/>
</linearGradient>
<linearGradient id="paint2_linear_202_960" x1="12.4341" y1="51.5962" x2="18.6704" y2="51.5962" gradientUnits="userSpaceOnUse">
<stop stop-color="#0094CB"/>
<stop offset="1" stop-color="#96DCCB"/>
</linearGradient>
<linearGradient id="paint3_linear_202_960" x1="19.6985" y1="51.3737" x2="21.0674" y2="51.3737" gradientUnits="userSpaceOnUse">
<stop stop-color="#0094CB"/>
<stop offset="1" stop-color="#96DCCB"/>
</linearGradient>
<linearGradient id="paint4_linear_202_960" x1="21.0824" y1="51.3737" x2="26.0869" y2="51.3737" gradientUnits="userSpaceOnUse">
<stop stop-color="#0094CB"/>
<stop offset="1" stop-color="#96DCCB"/>
</linearGradient>
<linearGradient id="paint5_linear_202_960" x1="24.8003" y1="51.3737" x2="31.2666" y2="51.3737" gradientUnits="userSpaceOnUse">
<stop stop-color="#0094CB"/>
<stop offset="1" stop-color="#96DCCB"/>
</linearGradient>
<linearGradient id="paint6_linear_202_960" x1="31.3184" y1="51.3737" x2="35.644" y2="51.3737" gradientUnits="userSpaceOnUse">
<stop stop-color="#0094CB"/>
<stop offset="1" stop-color="#96DCCB"/>
</linearGradient>
<linearGradient id="paint7_linear_202_960" x1="4.13829" y1="58.5269" x2="10.3743" y2="58.5269" gradientUnits="userSpaceOnUse">
<stop stop-color="#0094CB"/>
<stop offset="1" stop-color="#96DCCB"/>
</linearGradient>
<linearGradient id="paint8_linear_202_960" x1="10.1905" y1="58.5269" x2="17.1106" y2="58.5269" gradientUnits="userSpaceOnUse">
<stop stop-color="#0094CB"/>
<stop offset="1" stop-color="#96DCCB"/>
</linearGradient>
<linearGradient id="paint9_linear_202_960" x1="16.3247" y1="58.3045" x2="22.5166" y2="58.3045" gradientUnits="userSpaceOnUse">
<stop stop-color="#0094CB"/>
<stop offset="1" stop-color="#96DCCB"/>
</linearGradient>
<linearGradient id="paint10_linear_202_960" x1="22.5669" y1="58.3045" x2="27.3496" y2="58.3045" gradientUnits="userSpaceOnUse">
<stop stop-color="#0094CB"/>
<stop offset="1" stop-color="#96DCCB"/>
</linearGradient>
<linearGradient id="paint11_linear_202_960" x1="27.5518" y1="58.3045" x2="32.7881" y2="58.3045" gradientUnits="userSpaceOnUse">
<stop stop-color="#0094CB"/>
<stop offset="1" stop-color="#96DCCB"/>
</linearGradient>
<linearGradient id="paint12_linear_202_960" x1="32.8843" y1="58.3045" x2="38.5742" y2="58.3045" gradientUnits="userSpaceOnUse">
<stop stop-color="#0094CB"/>
<stop offset="1" stop-color="#96DCCB"/>
</linearGradient>
<linearGradient id="paint13_linear_202_960" x1="38.8247" y1="58.3045" x2="45.6523" y2="58.3045" gradientUnits="userSpaceOnUse">
<stop stop-color="#0094CB"/>
<stop offset="1" stop-color="#96DCCB"/>
</linearGradient>
<linearGradient id="paint14_linear_202_960" x1="46.239" y1="58.3045" x2="51.0205" y2="58.3045" gradientUnits="userSpaceOnUse">
<stop stop-color="#0094CB"/>
<stop offset="1" stop-color="#96DCCB"/>
</linearGradient>
<linearGradient id="paint15_linear_202_960" x1="51.1498" y1="58.3045" x2="56.8408" y2="58.3045" gradientUnits="userSpaceOnUse">
<stop stop-color="#0094CB"/>
<stop offset="1" stop-color="#96DCCB"/>
</linearGradient>
<linearGradient id="paint16_linear_202_960" x1="56.8572" y1="58.3045" x2="61.8623" y2="58.3045" gradientUnits="userSpaceOnUse">
<stop stop-color="#0094CB"/>
<stop offset="1" stop-color="#96DCCB"/>
</linearGradient>
<linearGradient id="paint17_linear_202_960" x1="-1.54902" y1="59.0956" x2="39.6157" y2="59.0956" gradientUnits="userSpaceOnUse">
<stop stop-color="#0094CB"/>
<stop offset="1" stop-color="#96DCCB"/>
</linearGradient>
<linearGradient id="paint18_linear_202_960" x1="28.0978" y1="60.7099" x2="62.8628" y2="60.7099" gradientUnits="userSpaceOnUse">
<stop stop-color="#0094CB"/>
<stop offset="1" stop-color="#96DCCB"/>
</linearGradient>
<linearGradient id="paint19_linear_202_960" x1="-2.12452" y1="30.0609" x2="15.0181" y2="30.0609" gradientUnits="userSpaceOnUse">
<stop stop-color="#0094CB"/>
<stop offset="1" stop-color="#96DCCB"/>
</linearGradient>
</defs>
</svg>
