<svg width="461" height="92" viewBox="0 0 461 92" fill="none" xmlns="http://www.w3.org/2000/svg">
<path fill-rule="evenodd" clip-rule="evenodd" d="M154.356 14.1512H165.131C165.252 14.1495 165.381 14.146 165.504 14.146C169.335 14.146 173.017 15.6606 175.741 18.3523C178.479 21.072 180.025 24.7784 180.025 28.6403C180.025 32.502 178.479 36.2085 175.74 38.9285C173.017 41.6201 169.335 43.1349 165.504 43.1349C165.381 43.1349 165.252 43.1313 165.131 43.1293L154.356 43.1304V14.1512ZM165.131 19.7456H160.577V37.5496H165.131C165.169 37.549 165.209 37.5502 165.248 37.5502C167.525 37.5502 169.704 36.6138 171.27 34.9617C172.9 33.3387 173.818 31.1296 173.818 28.8285C173.818 28.7701 173.816 28.7081 173.816 28.651C173.817 28.5874 173.818 28.5219 173.818 28.4575C173.818 26.1711 172.925 23.9731 171.333 22.3329C169.776 20.6804 167.604 19.743 165.333 19.743C165.267 19.743 165.196 19.745 165.131 19.7456Z" fill="#090A0D"/>
<rect x="185.806" y="14.1514" width="6.22239" height="28.9791" fill="#090A0D"/>
<path fill-rule="evenodd" clip-rule="evenodd" d="M214.771 27.4084H226.145V38.1561C226.042 38.2942 225.869 38.4955 225.627 38.761C225.143 39.244 224.621 39.6985 224.075 40.1129C223.281 40.7509 222.426 41.319 221.531 41.8081C220.413 42.385 219.23 42.8356 218.014 43.1531C216.575 43.5541 215.088 43.7587 213.594 43.7587H213.536C213.422 43.761 213.301 43.7629 213.186 43.7629C209.132 43.7629 205.236 42.1674 202.347 39.3242C199.443 36.5354 197.796 32.6781 197.796 28.6494C197.796 24.6208 199.443 20.7637 202.349 17.9757C205.236 15.1339 209.128 13.542 213.179 13.542C213.298 13.542 213.418 13.5439 213.536 13.5458H213.605C215.05 13.5458 216.491 13.7469 217.881 14.14C219.07 14.4595 220.216 14.9496 221.269 15.5881C222.083 16.1031 222.867 16.6744 223.612 17.2833C224.149 17.7085 224.643 18.191 225.076 18.7194L225.538 19.3243L221.599 23.2631C221.516 23.1532 221.406 23.0011 221.269 22.8076C220.973 22.4562 220.653 22.1201 220.316 21.8081C219.828 21.3398 219.286 20.9216 218.71 20.5662C217.992 20.1456 217.223 19.8108 216.426 19.5736C215.501 19.277 214.533 19.1249 213.562 19.1249H213.536C213.492 19.1243 213.443 19.1233 213.398 19.1233C208.143 19.1233 203.881 23.3855 203.881 28.6405C203.881 33.8962 208.143 38.1581 213.398 38.1581C213.443 38.1581 213.492 38.1567 213.536 38.1567C213.574 38.1564 213.615 38.1577 213.654 38.1577C214.817 38.1577 215.975 37.9629 217.075 37.5847C217.887 37.3342 218.646 36.9384 219.317 36.4189L219.945 35.8945V31.9557L214.771 31.957V27.4114V27.4084Z" fill="#090A0D"/>
<rect x="232.954" y="14.1514" width="6.22239" height="28.9791" fill="#090A0D"/>
<path fill-rule="evenodd" clip-rule="evenodd" d="M243.707 14.1514H266.463V19.7458H258.198V43.1281H251.991V19.7458H243.706L243.707 14.1514Z" fill="#090A0D"/>
<path fill-rule="evenodd" clip-rule="evenodd" d="M283.439 30.9199L279.922 21.4078L276.395 30.9199H283.439ZM285.502 36.2999H274.327L271.844 43.129H265.214L276.611 14.1499H283.219L294.616 43.129H287.987L285.502 36.2999Z" fill="#090A0D"/>
<path fill-rule="evenodd" clip-rule="evenodd" d="M318.407 43.1302H298.741V14.1514H304.961V37.5487H318.407V43.1302Z" fill="#090A0D"/>
<path fill-rule="evenodd" clip-rule="evenodd" d="M169.678 65.0814H181.053V75.8281C180.95 75.9661 180.778 76.1675 180.536 76.433C180.051 76.9163 179.529 77.3712 178.985 77.7843C178.191 78.4235 177.336 78.991 176.44 79.4803C175.323 80.0569 174.138 80.5082 172.921 80.8253C171.484 81.2261 169.997 81.4307 168.503 81.4307H168.445C168.333 81.4326 168.21 81.4346 168.095 81.4346C164.041 81.4346 160.145 79.839 157.257 76.9962C154.353 74.2073 152.706 70.3501 152.706 66.3213C152.706 62.2927 154.353 58.4355 157.258 55.6477C160.145 52.8073 164.037 51.2139 168.088 51.2139C168.207 51.2139 168.327 51.2158 168.444 51.2178H168.514C169.959 51.2178 171.402 51.4188 172.791 51.8116C173.982 52.1318 175.123 52.6212 176.177 53.2598C176.99 53.774 177.78 54.347 178.523 54.9572C179.059 55.3801 179.552 55.863 179.986 56.3916L180.448 56.9963L176.509 60.9351C176.426 60.8251 176.315 60.673 176.177 60.4795C175.883 60.1267 175.562 59.7914 175.226 59.4797C174.737 59.0121 174.195 58.5931 173.618 58.2382C172.9 57.8182 172.132 57.4824 171.335 57.2446C170.41 56.949 169.442 56.7966 168.471 56.7966H168.446C168.401 56.7966 168.353 56.7953 168.307 56.7953C163.052 56.7953 158.79 61.0574 158.79 66.3127C158.79 71.5682 163.052 75.83 168.307 75.83C168.353 75.83 168.401 75.8287 168.446 75.8287C168.483 75.8281 168.524 75.8293 168.562 75.8293C169.727 75.8293 170.885 75.6345 171.984 75.2563C172.794 75.0061 173.555 74.6102 174.226 74.0914L174.853 73.5675V69.6287L169.679 69.629V65.0833L169.678 65.0814Z" fill="#090A0D"/>
<path fill-rule="evenodd" clip-rule="evenodd" d="M195.34 59.5491C193.6 61.3711 192.629 63.7961 192.629 66.3156C192.629 68.835 193.6 71.26 195.34 73.0824C197.086 74.8398 199.462 75.8275 201.939 75.8275C204.416 75.8275 206.791 74.8398 208.536 73.083C210.275 71.26 211.247 68.8356 211.247 66.3156C211.247 63.7953 210.275 61.3711 208.537 59.5488C206.793 57.7887 204.417 56.7966 201.939 56.7966C199.461 56.7966 197.084 57.7889 195.34 59.5491ZM190.76 76.9944C187.855 74.2048 186.208 70.3477 186.208 66.3188C186.208 62.2903 187.855 58.4331 190.76 55.6451C193.784 52.8015 197.785 51.2153 201.938 51.2153C206.091 51.2153 210.092 52.8015 213.117 55.6451C216.025 58.4312 217.67 62.2891 217.67 66.3188C217.67 70.3486 216.025 74.2068 213.117 76.9944C210.092 79.8395 206.092 81.4294 201.938 81.4294C197.784 81.4294 193.784 79.8395 190.761 76.993L190.76 76.9944Z" fill="#090A0D"/>
<path fill-rule="evenodd" clip-rule="evenodd" d="M229.656 80.7998L218.902 51.8208L225.532 51.8212L232.968 73.343L240.426 51.8212H247.055L236.288 80.7998H229.656Z" fill="#090A0D"/>
<path fill-rule="evenodd" clip-rule="evenodd" d="M257.8 75.2224H273.321V80.7998H251.579V51.8242H272.9V57.4177H257.801V63.2188H269.583V68.7993H257.801L257.8 75.2224Z" fill="#090A0D"/>
<path fill-rule="evenodd" clip-rule="evenodd" d="M279.081 80.7997V51.8239H291.91C292.015 51.8206 292.125 51.8184 292.23 51.8184C294.771 51.8184 297.216 52.8119 299.036 54.5834C300.838 56.2948 301.86 58.6736 301.86 61.1597C301.86 61.2207 301.858 61.2827 301.857 61.3424C301.858 61.3616 301.858 61.3828 301.858 61.4015C301.858 62.4869 301.673 63.5681 301.313 64.5917C301.019 65.4695 300.583 66.2985 300.03 67.0403C299.578 67.6172 299.07 68.1536 298.518 68.6343C298.129 68.9993 297.687 69.306 297.207 69.5416L296.683 69.8246L302.884 80.7991L296.256 80.7997L290.683 70.6527H285.303V80.7997H279.081ZM295.649 61.3401C295.65 61.3015 295.65 61.2618 295.65 61.2236C295.65 60.212 295.248 59.2404 294.532 58.5258C293.809 57.8143 292.834 57.4153 291.819 57.4153C291.784 57.4153 291.746 57.4156 291.709 57.4166L285.302 57.4176V65.0771H291.71C291.746 65.0779 291.785 65.0781 291.822 65.0781C292.831 65.0781 293.802 64.6892 294.531 63.9929C295.246 63.3214 295.65 62.3835 295.65 61.4027V61.3475L295.649 61.3401Z" fill="#090A0D"/>
<path fill-rule="evenodd" clip-rule="evenodd" d="M328.136 51.8242H334.336V80.7998H328.962L314.689 62.3884L314.69 80.7998H308.467V51.8242H313.862L328.135 70.256L328.136 51.8242Z" fill="#090A0D"/>
<path fill-rule="evenodd" clip-rule="evenodd" d="M357.292 64.4542L367.315 51.8237L372.812 51.824V80.7998H366.612V61.4812L357.292 73.3416L347.993 61.5597V80.7998H341.771V51.824H347.372L357.292 64.4542Z" fill="#090A0D"/>
<path fill-rule="evenodd" clip-rule="evenodd" d="M386.47 75.2224H401.991V80.7998H380.249V51.8242H401.571V57.4177H386.471V63.2188H398.253V68.7993H386.471L386.47 75.2224Z" fill="#090A0D"/>
<path fill-rule="evenodd" clip-rule="evenodd" d="M427.417 51.8242H433.617V80.7998H428.245L413.972 62.3884V80.7998H407.75V51.8242H413.144L427.417 70.256V51.8242Z" fill="#090A0D"/>
<path fill-rule="evenodd" clip-rule="evenodd" d="M438.165 51.8242H460.92V57.4177H452.656V80.7998H446.447V57.4177H438.164L438.165 51.8242Z" fill="#090A0D"/>
<path fill-rule="evenodd" clip-rule="evenodd" d="M37.6438 48.2286C45.5762 44.4625 52.4453 44.4491 60.5474 48.1986C72.3123 53.6414 74.1008 62.0406 76.0581 73.4253C72.7471 70.1479 69.3176 61.9839 63.0037 61.4487C65.4121 79.4077 57.4602 87.0103 46.4976 89.9603C56.4873 89.1816 65.8772 84.8622 72.9717 77.7938C81.0344 70.0892 85.6016 59.4032 85.6016 48.2476C85.6016 47.9932 85.5967 47.7184 85.5967 47.4694C85.5918 47.2175 85.6016 46.9486 85.6016 46.6895C85.6016 35.5398 81.0332 24.8737 72.9724 17.1763C64.5591 8.92419 54.1409 4.79834 41.7168 4.79834H19.9805V8.26526L41.7148 8.26758C41.8718 8.26758 42.0491 8.26233 42.2107 8.26233C47.4624 8.26233 52.678 9.23242 57.5747 11.1201C60.9307 12.4504 64.0918 14.2631 66.937 16.4841L66.9407 16.489L65.1599 19.1096C63.0823 22.0897 60.4397 24.656 57.4023 26.6494C53.7705 29.0304 49.8042 30.8789 45.6438 32.1244C42.0667 33.2341 39.4717 34.4921 37.543 36.5723C35.5386 38.7311 34.478 41.4902 34.0857 45.4835L34.0073 46.2898C33.3906 46.6648 32.7517 47.0844 32.157 47.5154C31.0293 48.2852 30.0339 49.2412 29.2197 50.3385L24.7581 56.9801L32.6465 55.6791C37.321 54.9091 42.2949 57.9091 45.2065 62.316C46.3657 64.038 47.1504 65.9912 47.4995 68.0371C47.6011 68.6503 47.6523 69.2764 47.6523 69.8989C47.6523 71.2782 47.4014 72.6481 46.9109 73.938C44.8367 79.3584 38.1626 84.4109 24.1189 86.6985H13.4429V48.4033H9.97314V90.1731H24.3298C67.9275 83.2633 49.0693 49.4628 32.0903 52.2614C33.0425 50.8444 36.1738 48.9253 37.6438 48.23V48.2286ZM37.5251 45.8223C38.1528 39.4375 40.6492 37.2937 46.657 35.4321C54.9036 32.8772 63.0852 28.3207 68.0178 21.0469C70.1858 26.5747 68.3662 32.9749 62.6467 35.3584C70.0859 38.1807 79.4429 40.1749 81.4795 49.903C79.2544 48.5302 77.4128 47.1908 74.7351 45.8301C65.7278 41.2534 57.917 41.1013 48.6755 44.3627C49.2808 42.0449 50.1562 39.9423 49.5312 37.6464C46.1248 39.3599 43.1816 44.1097 37.5251 45.8223ZM63.4729 45.7739L63.4692 45.7749C66.8521 46.2494 70.1448 47.317 73.1643 48.9126V48.9175C74.7268 49.7283 76.2539 50.6351 77.719 51.614C78.2161 51.9348 78.7217 52.2601 79.6641 52.8419L81.6353 54.0583C81.1934 57.0166 80.3813 59.921 79.238 62.6864C78.8638 63.5857 78.4536 64.4683 78.0076 65.3353C77.3679 62.4502 76.3706 59.6459 75.0591 56.9957C72.5261 52.0944 68.4529 48.1478 63.4729 45.7739ZM71.9187 73.9183C71.4753 74.3942 71.0176 74.8635 70.5461 75.326C68.6294 77.213 66.5234 78.9202 64.2742 80.3901C66.0063 76.5696 66.9065 72.4105 66.9065 68.2117C66.9065 67.9343 66.9028 67.6498 66.8967 67.3767C68.1174 68.7273 69.2576 70.1731 70.2812 71.6832C70.8394 72.465 71.3772 73.2128 71.9187 73.9183ZM81.8032 42.1292C78.7793 38.0475 74.2373 35.9167 69.6184 34.1968C70.3792 33.1702 70.9941 32.0386 71.4399 30.8414C72.0503 29.1587 72.3645 27.3741 72.3645 25.5818C72.3645 23.9137 72.0935 22.2512 71.5608 20.6707C77.2461 26.4912 80.8542 34.0453 81.8032 42.1292Z" fill="url(#paint0_linear_202_904)"/>
<path fill-rule="evenodd" clip-rule="evenodd" d="M103.152 43.8281H136.664V75.49C136.359 75.8929 135.851 76.4823 135.14 77.2579C133.712 78.6807 132.172 80.0194 130.565 81.2411C128.221 83.1196 125.707 84.8016 123.068 86.24C119.775 87.9335 116.286 89.2714 112.704 90.2019C108.461 91.3875 104.063 91.9911 99.6541 91.9911H99.512C99.2249 91.9939 98.9155 91.9995 98.6184 91.9995C89.4182 91.9995 80.4199 89.2322 72.8081 84.0679C73.9583 83.1294 75.0776 82.1221 76.1672 81.0472C79.1929 78.104 81.8345 74.75 83.9841 71.1097C88.4453 73.9675 93.644 75.4904 98.9438 75.4904C99.1299 75.4904 99.3259 75.4867 99.5088 75.4835C99.6179 75.4823 99.7461 75.4861 99.8591 75.4861C103.289 75.4861 106.695 74.9128 109.935 73.7965C112.325 73.0604 114.564 71.8926 116.54 70.3612L118.389 68.8162L118.389 57.2195H103.147V43.8281H103.152ZM72.7964 10.8923C80.7056 5.72986 89.9485 2.97949 99.394 2.97949C103.76 2.97949 108.109 3.56775 112.314 4.7262C115.82 5.67017 119.192 7.1134 122.296 8.99512C124.692 10.5085 127.017 12.201 129.206 13.9967C130.783 15.2435 132.232 16.6643 133.511 18.2203L134.874 20.0092L123.27 31.6136C123.026 31.2887 122.701 30.8417 122.294 30.2726C121.425 29.2339 120.482 28.2443 119.489 27.3251C118.044 25.9456 116.454 24.7137 114.754 23.667C112.639 22.4326 110.371 21.4441 108.026 20.745C105.218 19.8724 102.286 19.4237 99.3438 19.4237C93.9072 19.4237 88.5745 20.9446 83.9578 23.8088C81.8184 20.1902 79.1787 16.8502 76.1658 13.9191C75.0701 12.8446 73.9456 11.8369 72.7925 10.8966L72.7964 10.8923Z" fill="url(#paint1_linear_202_904)"/>
<path fill-rule="evenodd" clip-rule="evenodd" d="M14.4072 14.3268L20.4868 20.4492L22.2192 20.2145L24.498 18.5111L26.6855 20.1763L29.502 20.5837L29.8711 23.3077L31.5742 25.587L29.9092 27.7743L29.502 30.5905L26.7778 30.9596L24.498 32.663L22.3115 30.9978L20.9546 30.8015L15.3882 37.1495L15.5864 38.6123L16.8535 40.308L15.6147 41.9352L15.3115 44.0302L13.2852 44.3048L11.5894 45.572L9.9624 44.3333L7.86719 44.0302L7.59277 42.0037L6.3252 40.308L7.56445 38.6809L7.86719 36.5858L9.89404 36.3112L11.5894 35.0439L13.2163 36.2827L13.9922 36.3949L19.4395 30.1825L19.126 27.8666L17.4229 25.587L19.0879 23.3999L19.3608 21.5116L13.1206 15.2273L11.0938 15.5021L8.41016 17.5073L5.83496 15.547L2.51953 15.0675L2.08496 11.8605L0.0795898 9.177L2.04004 6.60205L2.51953 3.28674L5.72656 2.85205L8.41016 0.84668L10.9849 2.80701L14.3003 3.28674L14.7349 6.49353L16.7402 9.177L14.7798 11.7521L14.4072 14.3268Z" fill="url(#paint2_linear_202_904)"/>
<defs>
<linearGradient id="paint0_linear_202_904" x1="-4.8147" y1="130.441" x2="85.6016" y2="130.441" gradientUnits="userSpaceOnUse">
<stop stop-color="#0094CB"/>
<stop offset="1" stop-color="#96DCCB"/>
</linearGradient>
<linearGradient id="paint1_linear_202_904" x1="60.3036" y1="133.986" x2="136.664" y2="133.986" gradientUnits="userSpaceOnUse">
<stop stop-color="#0094CB"/>
<stop offset="1" stop-color="#96DCCB"/>
</linearGradient>
<linearGradient id="paint2_linear_202_904" x1="-6.07865" y1="66.667" x2="31.5742" y2="66.667" gradientUnits="userSpaceOnUse">
<stop stop-color="#0094CB"/>
<stop offset="1" stop-color="#96DCCB"/>
</linearGradient>
</defs>
</svg>
