<svg width="30" height="30" viewBox="0 0 30 30" fill="none" xmlns="http://www.w3.org/2000/svg">
<rect width="30" height="30" rx="6" fill="#0094CB"/>
<path fill-rule="evenodd" clip-rule="evenodd" d="M15.8332 6.66669C15.3729 6.66669 14.9998 7.03978 14.9998 7.50002V14.1667C14.9998 14.6269 15.3729 15 15.8332 15H22.4998C22.9601 15 23.3332 14.6269 23.3332 14.1667V7.50002C23.3332 7.03978 22.9601 6.66669 22.4998 6.66669H15.8332Z" fill="white"/>
<path fill-rule="evenodd" clip-rule="evenodd" d="M7.49984 8.33335C7.0396 8.33335 6.6665 8.70645 6.6665 9.16669V14.1667C6.6665 14.6269 7.0396 15 7.49984 15H12.4998C12.9601 15 13.3332 14.6269 13.3332 14.1667V9.16669C13.3332 8.70645 12.9601 8.33335 12.4998 8.33335H7.49984Z" fill="white"/>
<path fill-rule="evenodd" clip-rule="evenodd" d="M9.1665 16.6667C8.70627 16.6667 8.33317 17.0398 8.33317 17.5V20.8334C8.33317 21.2936 8.70627 21.6667 9.1665 21.6667H12.4998C12.9601 21.6667 13.3332 21.2936 13.3332 20.8334V17.5C13.3332 17.0398 12.9601 16.6667 12.4998 16.6667H9.1665Z" fill="white"/>
<path fill-rule="evenodd" clip-rule="evenodd" d="M14.9998 17.5C14.9998 17.0398 15.3729 16.6667 15.8332 16.6667H20.8332C21.2934 16.6667 21.6665 17.0398 21.6665 17.5V22.5C21.6665 22.9603 21.2934 23.3334 20.8332 23.3334H15.8332C15.3729 23.3334 14.9998 22.9603 14.9998 22.5V17.5Z" fill="white"/>
</svg>
