<svg width="106" height="106" viewBox="0 0 106 106" fill="none" xmlns="http://www.w3.org/2000/svg">
<rect x="1.57143" y="1.57143" width="102.857" height="102.857" rx="51.4286" fill="url(#paint0_linear_21_12503)"/>
<rect x="1.57143" y="1.57143" width="102.857" height="102.857" rx="51.4286" stroke="#8FDED6" stroke-width="2.85714"/>
<path fill-rule="evenodd" clip-rule="evenodd" d="M45.8569 29.1906C39.2821 29.1906 33.9521 34.5205 33.9521 41.0953V74.4286C33.9521 75.2538 34.3794 76.0202 35.0814 76.454C35.7833 76.8878 36.6598 76.9273 37.3979 76.5582L41.2035 74.6554L46.1631 76.6393C46.7308 76.8664 47.364 76.8664 47.9317 76.6393L52.9998 74.6121L58.0679 76.6393C58.6355 76.8664 59.2688 76.8664 59.8364 76.6393L64.7961 74.6554L68.6016 76.5582C69.3397 76.9273 70.2162 76.8878 70.9182 76.454C71.6201 76.0202 72.0474 75.2538 72.0474 74.4286V41.0953C72.0474 34.5205 66.7174 29.1906 60.1426 29.1906H45.8569ZM43.476 41.0953C43.476 39.7803 44.5419 38.7144 45.8569 38.7144H60.1426C61.4576 38.7144 62.5236 39.7803 62.5236 41.0953C62.5236 42.4103 61.4576 43.4763 60.1426 43.4763H45.8569C44.5419 43.4763 43.476 42.4103 43.476 41.0953ZM45.8569 48.2382C44.5419 48.2382 43.476 49.3042 43.476 50.6191C43.476 51.9341 44.5419 53.0001 45.8569 53.0001H60.1426C61.4576 53.0001 62.5236 51.9341 62.5236 50.6191C62.5236 49.3042 61.4576 48.2382 60.1426 48.2382H45.8569Z" fill="white"/>
<defs>
<linearGradient id="paint0_linear_21_12503" x1="-16.5533" y1="150.166" x2="103" y2="150.166" gradientUnits="userSpaceOnUse">
<stop stop-color="#0094CB"/>
<stop offset="1" stop-color="#96DCCB"/>
</linearGradient>
</defs>
</svg>
