<svg width="995" height="264" viewBox="0 0 995 264" fill="none" xmlns="http://www.w3.org/2000/svg">
<line x1="982.48" y1="9.82788" x2="982.48" y2="257.828" stroke="#808181" stroke-dasharray="2 3"/>
<line x1="331.565" y1="238.828" x2="331.565" y2="257.828" stroke="#808181" stroke-dasharray="2 3"/>
<line x1="169.836" y1="164.828" x2="169.836" y2="257.828" stroke="#808181" stroke-dasharray="2 3"/>
<line x1="814.433" y1="150.5" x2="814.433" y2="257.828" stroke="#808181" stroke-dasharray="2 3"/>
<path d="M9.83496 145.624C9.83496 145.624 169.29 163.513 170.272 162.881C171.542 165.333 331.268 239.698 331.268 239.698L490.533 129.664L655.423 135.445L815.636 152.633L982.229 9.37573" stroke="#52B8DE" stroke-width="2"/>
<path fill-rule="evenodd" clip-rule="evenodd" d="M169.336 172.23C174.554 172.23 178.812 167.974 178.812 162.753C178.812 157.535 174.554 153.279 169.336 153.279C164.117 153.279 159.859 157.535 159.859 162.753C159.859 167.974 164.117 172.23 169.336 172.23Z" fill="#52B8DE"/>
<path fill-rule="evenodd" clip-rule="evenodd" d="M331.067 248.569C336.283 248.569 340.541 244.313 340.541 239.092C340.541 233.874 336.283 229.618 331.067 229.618C325.846 229.618 321.588 233.874 321.588 239.092C321.588 244.313 325.846 248.569 331.067 248.569Z" fill="#52B8DE"/>
<path fill-rule="evenodd" clip-rule="evenodd" d="M814.024 160.174C819.242 160.174 823.5 155.918 823.5 150.698C823.5 145.479 819.242 141.223 814.024 141.223C808.805 141.223 804.547 145.479 804.547 150.698C804.547 155.918 808.805 160.174 814.024 160.174Z" fill="#52B8DE"/>
<path d="M981.981 23.9601C988.096 23.9601 993.081 18.9742 993.081 12.8598C993.081 6.74731 988.096 1.76147 981.981 1.76147C975.869 1.76147 970.883 6.74731 970.883 12.8598C970.883 18.9742 975.869 23.9601 981.981 23.9601Z" fill="white" stroke="#52B8DE" stroke-width="3"/>
<line x1="10.228" y1="139.828" x2="10.228" y2="257.828" stroke="#808181" stroke-dasharray="2 3"/>
<line x1="492.04" y1="130.828" x2="492.04" y2="257.828" stroke="#808181" stroke-dasharray="2 3"/>
<line x1="655.548" y1="133.828" x2="655.548" y2="263.828" stroke="#808181" stroke-dasharray="2 3"/>
<path fill-rule="evenodd" clip-rule="evenodd" d="M9.72839 153.279C14.9467 153.279 19.2048 149.023 19.2048 143.802C19.2048 138.584 14.9467 134.328 9.72839 134.328C4.51003 134.328 0.251953 138.584 0.251953 143.802C0.251953 149.023 4.51003 153.279 9.72839 153.279Z" fill="#52B8DE"/>
<path fill-rule="evenodd" clip-rule="evenodd" d="M654.048 144.436C659.267 144.436 663.525 140.18 663.525 134.959C663.525 129.741 659.267 125.485 654.048 125.485C648.83 125.485 644.572 129.741 644.572 134.959C644.572 140.18 648.83 144.436 654.048 144.436Z" fill="#52B8DE"/>
<path fill-rule="evenodd" clip-rule="evenodd" d="M491.54 140.303C496.758 140.303 501.016 136.047 501.016 130.827C501.016 125.608 496.758 121.352 491.54 121.352C486.322 121.352 482.063 125.608 482.063 130.827C482.063 136.047 486.322 140.303 491.54 140.303Z" fill="#52B8DE"/>
</svg>
