<svg width="41" height="41" viewBox="0 0 41 41" fill="none" xmlns="http://www.w3.org/2000/svg">
<path fill-rule="evenodd" clip-rule="evenodd" d="M20.5516 0.699219C9.52232 0.699219 0.580078 9.64146 0.580078 20.6707C0.580078 31.7 9.52232 40.6422 20.5516 40.6422C31.5808 40.6422 40.5231 31.7 40.5231 20.6707C40.5231 9.64146 31.5808 0.699219 20.5516 0.699219ZM29.8084 14.2815C29.5088 17.4387 28.2073 25.1027 27.5466 28.6393C27.267 30.1372 26.7144 30.6382 26.1819 30.6864C25.0219 30.7929 24.1415 29.9192 23.0181 29.1836C21.2606 28.0319 20.267 27.3146 18.5611 26.1895C16.5889 24.8897 17.8671 24.1757 18.9905 23.009C19.2851 22.7028 24.3944 18.0545 24.4943 17.6334C24.5059 17.5801 24.5192 17.3837 24.4011 17.2806C24.2829 17.1774 24.1115 17.2123 23.9883 17.2406C23.8119 17.2806 21.0043 19.1362 15.5637 22.8077C14.7665 23.3552 14.0442 23.6215 13.3968 23.6082C12.6845 23.5932 11.3131 23.2054 10.2929 22.8726C9.043 22.4665 8.04776 22.2501 8.1343 21.5611C8.17924 21.2016 8.67353 20.8338 9.61885 20.4577C15.4405 17.9213 19.3233 16.2487 21.2656 15.4398C26.8126 13.1331 27.9643 12.732 28.7166 12.7187C29.6586 12.7054 29.8849 13.4826 29.8084 14.2815Z" fill="#AAAAAA"/>
</svg>
