<svg width="106" height="106" viewBox="0 0 106 106" fill="none" xmlns="http://www.w3.org/2000/svg">
<rect x="1.57143" y="1.57143" width="102.857" height="102.857" rx="51.4286" fill="url(#paint0_linear_21_12508)"/>
<rect x="1.57143" y="1.57143" width="102.857" height="102.857" rx="51.4286" stroke="#8FDED6" stroke-width="2.85714"/>
<path fill-rule="evenodd" clip-rule="evenodd" d="M29.1904 41.0953C29.1904 34.5205 34.5204 29.1906 41.0952 29.1906H64.9047C71.4795 29.1906 76.8095 34.5205 76.8095 41.0953V64.9048C76.8095 71.4797 71.4795 76.8096 64.9047 76.8096H41.0952C34.5204 76.8096 29.1904 71.4797 29.1904 64.9048V41.0953ZM64.2074 45.3641C65.1372 46.2939 65.1372 47.8015 64.2074 48.7313L52.3026 60.636C51.489 61.4496 50.2331 61.5513 49.3089 60.9411C49.1769 60.854 49.0516 60.7523 48.9354 60.636L41.7926 53.4932C40.8627 52.5634 40.8627 51.0558 41.7926 50.126C42.7224 49.1962 44.2299 49.1962 45.1597 50.126L50.619 55.5853L60.8402 45.3641C61.77 44.4343 63.2775 44.4343 64.2074 45.3641Z" fill="white"/>
<defs>
<linearGradient id="paint0_linear_21_12508" x1="-16.5533" y1="150.166" x2="103" y2="150.166" gradientUnits="userSpaceOnUse">
<stop stop-color="#0094CB"/>
<stop offset="1" stop-color="#96DCCB"/>
</linearGradient>
</defs>
</svg>
