<svg width="42" height="41" viewBox="0 0 42 41" fill="none" xmlns="http://www.w3.org/2000/svg">
<path d="M20.4455 0.833984C9.47437 0.833984 0.580078 9.72774 0.580078 20.6993C0.580078 31.6704 9.47437 40.5647 20.4455 40.5647C31.4171 40.5647 40.3109 31.6704 40.3109 20.6993C40.3109 9.72774 31.4171 0.833984 20.4455 0.833984ZM30.8043 17.1228C31.0938 23.5643 26.2902 30.7455 17.7881 30.7455C15.2019 30.7455 12.795 29.9872 10.7684 28.6878C13.1978 28.9749 15.6228 28.301 17.5478 26.7921C15.5437 26.7545 13.8522 25.4316 13.2706 23.6112C13.9874 23.7484 14.693 23.7088 15.3382 23.533C13.1358 23.0907 11.6156 21.107 11.6649 18.9848C12.2817 19.3276 12.9888 19.5342 13.7398 19.5576C11.7001 18.1952 11.123 15.5021 12.3228 13.4434C14.5807 16.2146 17.955 18.038 21.761 18.2284C21.094 15.3639 23.266 12.6054 26.2218 12.6054C27.5393 12.6054 28.7294 13.1616 29.5649 14.0518C30.6075 13.8462 31.5875 13.4648 32.4724 12.9399C32.1305 14.0103 31.4044 14.9079 30.4595 15.4733C31.3849 15.363 32.2677 15.1168 33.0891 14.7525C32.4753 15.6716 31.6989 16.4783 30.8043 17.1228Z" fill="#AAAAAA"/>
<path d="M0.687012 20.2856C0.687012 9.13778 9.72417 0.101074 20.8715 0.101074C32.0194 0.101074 41.0561 9.13778 41.0561 20.2856C41.0561 31.433 32.0194 40.4702 20.8715 40.4702C9.72417 40.4702 0.687012 31.433 0.687012 20.2856ZM18.1714 30.4933C26.8102 30.4933 31.691 23.1967 31.3967 16.6517C32.3057 15.9968 33.0946 15.1771 33.7183 14.2433C32.8838 14.6135 31.9866 14.8635 31.0464 14.9756C32.0065 14.4011 32.7443 13.4891 33.0917 12.4016C32.1926 12.9349 31.1968 13.3224 30.1375 13.5313C29.2885 12.6268 28.0793 12.0617 26.7407 12.0617C23.7374 12.0617 21.5305 14.8645 22.2082 17.775C18.3411 17.5815 14.9126 15.7288 12.6183 12.9131C11.3993 15.0049 11.9857 17.7413 14.0582 19.1256C13.2951 19.1018 12.5766 18.8919 11.95 18.5436C11.8999 20.6999 13.4444 22.7153 15.6822 23.1649C15.0267 23.3435 14.3097 23.3837 13.5814 23.2443C14.1723 25.094 15.891 26.4381 17.9273 26.4763C15.9714 28.0095 13.5074 28.6942 11.039 28.4024C13.0981 29.7227 15.5437 30.4933 18.1714 30.4933Z" fill="#AAAAAA"/>
</svg>
