<svg width="218" height="38" viewBox="0 0 218 38" fill="none" xmlns="http://www.w3.org/2000/svg">
<path fill-rule="evenodd" clip-rule="evenodd" d="M215.337 23.1886H212.524L212.528 4.91942L207.314 18.6787C206.176 21.4017 202.469 20.9837 201.68 18.6787L196.409 5.79061L196.423 10.7208V18.0515V18.2046V18.3576V18.5106L196.423 18.5545L196.423 20.9837C196.407 22.4316 195.649 23.1284 194.217 23.1886H191.844V19.3712V2.85027L191.845 2.79821L191.847 2.74678L191.851 2.69504L191.857 2.64361L191.864 2.59186L191.873 2.54106L191.883 2.48932L191.894 2.4382L191.907 2.38708L191.921 2.33659L191.936 2.28673L191.953 2.23624L191.972 2.187L191.991 2.13714L192.012 2.08791L192.034 2.0393L192.057 1.991L192.082 1.94302L192.107 1.89567L192.134 1.84863L192.162 1.80221L192.191 1.75643L192.221 1.71096L192.252 1.66642L192.284 1.62189L192.317 1.57799L192.351 1.53534L192.386 1.49331L192.422 1.45192L192.459 1.41115L192.496 1.37101L192.535 1.33181L192.574 1.29324L192.614 1.2556L192.654 1.21891L192.696 1.18316L192.738 1.14835L192.781 1.11448L192.825 1.08155L192.869 1.04957L192.914 1.01789L192.959 0.988101L193.005 0.95925L193.052 0.931339L193.099 0.904683L193.146 0.878968L193.194 0.854507L193.242 0.8313L193.291 0.809348L193.34 0.788336L193.389 0.768893L193.44 0.750704L193.489 0.73377L193.54 0.718403L193.59 0.703664L193.641 0.69112L193.692 0.679516L193.743 0.669795L193.795 0.6607L193.846 0.654115L193.898 0.64847L193.95 0.64502L194.001 0.641884L194.053 0.641571H194.596H199.283L204.663 15.0165L209.868 1.86525C210.276 1.04831 210.93 0.637494 211.838 0.641571H215.349H217.542V20.9837C217.537 22.4928 216.927 23.1846 215.337 23.1886Z" fill="#EF6700"/>
<path fill-rule="evenodd" clip-rule="evenodd" d="M176.957 23.5797C173.725 23.5797 171.096 22.5282 169.061 20.4299C167.027 18.326 166.013 15.5882 166.013 12.2126C166.013 8.64943 167.043 5.7668 169.109 3.56625C171.176 1.36602 173.908 0.260254 177.316 0.260254C180.536 0.260254 183.139 1.31772 185.125 3.42105C187.111 5.53066 188.104 8.31043 188.104 11.756C188.104 15.2987 187.073 18.1591 185.012 20.3274C182.956 22.4959 180.268 23.5797 176.957 23.5797ZM177.176 4.63438C175.394 4.63438 173.977 5.30016 172.931 6.64175C171.885 7.97832 171.358 9.74422 171.358 11.9445C171.358 14.1773 171.885 15.9432 172.931 17.2475C173.977 18.5458 175.352 19.1956 177.047 19.1956C178.802 19.1956 180.187 18.5618 181.218 17.3008C182.243 16.0345 182.758 14.2846 182.758 12.0414C182.758 9.70094 182.259 7.88142 181.266 6.58248C180.268 5.28417 178.904 4.63438 177.176 4.63438Z" fill="#EF6700"/>
<path fill-rule="evenodd" clip-rule="evenodd" d="M162.667 22.8515C161.176 23.3555 159.588 23.58 157.442 23.58C153.985 23.58 151.264 22.5659 149.284 20.5315C147.298 18.4972 146.311 15.7873 146.311 12.4004C146.311 8.79431 147.422 5.86903 149.649 3.62551C151.876 1.38232 154.769 0.260559 158.322 0.260559C159.656 0.260559 160.581 0.344291 161.549 0.513009C162.879 0.745075 163.859 1.19541 163.888 2.8045V4.12477C163.753 5.48267 162.623 5.35127 162.004 5.15966C160.982 4.84198 159.904 4.63437 158.73 4.63437C156.615 4.63437 154.903 5.29984 153.604 6.63077C152.305 7.96169 151.656 9.76554 151.656 12.041C151.656 14.2199 152.268 15.9592 153.497 17.2525C154.721 18.5455 156.373 19.1952 158.451 19.1952C159.855 19.1952 160.769 18.8371 162.063 18.5483C162.824 18.378 163.89 18.7252 163.888 19.5405V20.7285C163.845 22.0528 163.443 22.5894 162.667 22.8515Z" fill="#EF6700"/>
<path fill-rule="evenodd" clip-rule="evenodd" d="M132.834 23.5797C129.603 23.5797 126.973 22.5282 124.939 20.4299C122.905 18.326 121.89 15.5882 121.89 12.2126C121.89 8.64943 122.921 5.7668 124.987 3.56625C127.054 1.36602 129.785 0.260254 133.193 0.260254C136.414 0.260254 139.017 1.31772 141.002 3.42105C142.988 5.53066 143.981 8.31043 143.981 11.756C143.981 15.2987 142.95 18.1591 140.889 20.3274C138.834 22.4959 136.145 23.5797 132.834 23.5797ZM133.054 4.63438C131.272 4.63438 129.855 5.30016 128.808 6.64175C127.762 7.97832 127.235 9.74422 127.235 11.9445C127.235 14.1773 127.762 15.9432 128.808 17.2475C129.855 18.5458 131.229 19.1956 132.925 19.1956C134.68 19.1956 136.065 18.5618 137.095 17.3008C138.12 16.0345 138.635 14.2846 138.635 12.0414C138.635 9.70094 138.136 7.88142 137.143 6.58248C136.145 5.28417 134.782 4.63438 133.054 4.63438Z" fill="#EF6700"/>
<path fill-rule="evenodd" clip-rule="evenodd" d="M119.593 4.77456H111.639V10.3131H116.741C117.845 10.3131 118.95 11.4176 118.95 12.5218V14.4298H111.639V23.1887H108.765C107.661 23.1887 106.557 22.0845 106.557 20.9797V0.641907H117.384C118.489 0.641907 119.593 1.74641 119.593 2.8503V4.77456Z" fill="#EF6700"/>
<path fill-rule="evenodd" clip-rule="evenodd" d="M98.6733 23.1953C97.8407 23.1802 96.6903 23.3813 95.4118 21.8669L86.9831 9.0192C86.4412 8.19254 86.0602 7.57004 85.8507 7.15138H85.7917C85.8723 7.94605 85.9153 9.16439 85.9153 10.7961V21.4667C85.9153 22.251 85.3671 23.1884 84.6201 23.1884H83.3256H81.1172V20.9794V19.65V2.85001C81.3398 1.15812 83.0267 0.604928 84.1409 0.641933C85.3696 0.604928 86.4158 0.755457 87.4454 1.95122L95.5382 14.3652C95.9459 14.9877 96.3216 15.5989 96.6706 16.2057H96.7349C96.6493 15.6851 96.6063 14.649 96.6063 13.1086V2.83213C96.6063 1.74613 97.7108 0.641306 98.8232 0.641306H101.403L101.405 2.85001V16.8408V20.9794C101.343 22.6239 99.7044 23.2144 98.6733 23.1953Z" fill="#EF6700"/>
<path fill-rule="evenodd" clip-rule="evenodd" d="M73.7879 23.1887H70.9141V2.8503C70.9141 1.74611 72.0186 0.641602 73.1225 0.641602H75.9966V20.9859C75.9966 22.0845 74.8928 23.1887 73.7879 23.1887Z" fill="#EF6700"/>
<path fill-rule="evenodd" clip-rule="evenodd" d="M65.41 23.1887H51.6447C49.669 23.1887 48.8354 20.9113 50.1466 19.3104L60.9907 4.77425H50.267V2.85438C50.267 1.74642 51.3715 0.641602 52.4892 0.641602H65.0286H67.5653C67.65 2.34415 67.3044 3.83157 66.4276 5.05367L56.2625 19.0664H67.5973V20.9862C67.5973 22.0845 66.4934 23.1887 65.41 23.1887Z" fill="#EF6700"/>
<path fill-rule="evenodd" clip-rule="evenodd" d="M46.4618 13.4256C46.4618 20.1935 43.306 23.5797 37.0001 23.5797C30.8761 23.5797 27.8153 20.2738 27.8169 13.6618L27.8197 2.85C27.8197 1.74612 28.4516 0.641296 30.0297 0.641296H32.9101V13.7207C32.9101 17.3704 34.3376 19.1953 37.1877 19.1953C39.9837 19.1953 41.3849 17.4347 41.3849 13.9086V2.85C41.3849 1.74612 42.5101 0.641296 43.5895 0.641296H46.4618V13.4256Z" fill="#EF6700"/>
<path fill-rule="evenodd" clip-rule="evenodd" d="M22.8401 0.671082H3.39803C1.78078 0.671082 0.458008 1.99417 0.458008 3.6111V4.26465C0.989564 4.34588 1.58039 4.50299 2.21983 4.72972C4.23441 5.44443 6.74292 6.8572 9.43613 8.8075C11.6248 7.17676 13.639 6.01016 15.2729 5.43125C16.8688 4.86551 18.1072 4.85893 18.8003 5.52439C19.5853 6.27767 19.5539 7.7839 18.8536 9.75677C18.1386 11.7714 16.7258 14.2799 14.7758 16.9728C16.4066 19.1617 17.5729 21.176 18.1521 22.8098C18.1816 22.892 18.2088 22.9732 18.2349 23.0535H19.9001C21.5174 23.0535 22.8401 21.7307 22.8401 20.1135V0.671082ZM0.458008 13.0151C0.720179 13.3952 0.998031 13.7819 1.29062 14.1742L1.29156 14.1751L1.60548 14.5906C2.15052 15.3022 2.74292 16.0313 3.37827 16.7702C4.00203 17.4952 4.66749 18.2297 5.37059 18.9673C5.38721 18.9845 5.41418 18.987 5.43362 18.9723C5.45432 18.9566 5.45903 18.9265 5.44303 18.9058C3.48208 16.2869 2.08184 13.8922 1.39035 11.9674C0.72802 10.1256 0.716103 8.71875 1.48506 7.96579C2.05613 7.40664 3.01105 7.25485 4.25511 7.45995C5.54213 7.67226 7.13586 8.26653 8.9328 9.18821C8.23974 9.72071 7.53068 10.2974 6.81285 10.9152C6.08811 11.5387 5.35334 12.2038 4.61544 12.9072C4.59819 12.9235 4.59599 12.9508 4.61042 12.9703C4.62641 12.9913 4.65652 12.9953 4.67722 12.98C7.29611 11.0187 9.69078 9.61816 11.6154 8.92667C13.4578 8.26465 14.8646 8.25274 15.6176 9.02138C16.1764 9.59276 16.3282 10.5477 16.1234 11.7917C15.9111 13.0785 15.3165 14.6722 14.3951 16.4691C13.8633 15.7764 13.2865 15.0679 12.6691 14.3504C12.0453 13.6251 11.3792 12.89 10.6761 12.1521C10.6598 12.1351 10.6322 12.1326 10.6128 12.1467C10.5918 12.1627 10.5874 12.1928 10.6034 12.2135C12.5643 14.8327 13.9649 17.2274 14.6564 19.1523C15.2898 20.9154 15.3281 22.2795 14.656 23.0532H5.58008C5.92786 22.8124 6.28066 22.5587 6.63755 22.2921L6.6388 22.2915L7.05401 21.9779C7.76557 21.4331 8.49438 20.8404 9.23292 20.2054C9.95797 19.5816 10.6931 18.9158 11.431 18.2124C11.4479 18.1958 11.4507 18.1685 11.436 18.1491C11.42 18.1284 11.3902 18.124 11.3695 18.1397C8.7506 20.1006 6.35562 21.5015 4.43104 22.1927C3.48678 22.5323 2.65636 22.7007 1.9702 22.6806C1.07016 22.177 0.458008 21.2133 0.458008 20.1135V13.0151Z" fill="#004F91"/>
<path fill-rule="evenodd" clip-rule="evenodd" d="M85.3135 37.016L86.4825 31.5499H89.7371L89.5609 32.3462H87.112L86.8253 33.6843H89.2511L89.0821 34.473H86.6635L86.2891 36.227H88.7085L88.5395 37.016H85.3135ZM91.2214 35.8607L91.9894 35.4524C92.1961 36.058 92.4708 36.3609 92.8136 36.3609C93.0485 36.3609 93.2561 36.2941 93.437 36.1599C93.6176 36.0263 93.734 35.8466 93.7854 35.6211C93.7952 35.5788 93.7999 35.5273 93.7999 35.4665C93.7999 35.3113 93.6917 35.1165 93.4756 34.8816C93.405 34.8064 93.2643 34.6562 93.0532 34.431L92.6304 33.9872C92.4991 33.8461 92.4122 33.736 92.3698 33.6561C92.2711 33.4635 92.2218 33.2641 92.2218 33.0574C92.2218 33.0245 92.2268 32.9774 92.2359 32.9163C92.2453 32.8555 92.25 32.8084 92.25 32.7758C92.2971 32.5926 92.377 32.4164 92.4897 32.2474C92.7148 31.914 93.0109 31.6766 93.3771 31.5358C93.5694 31.4609 93.755 31.4229 93.9335 31.4229C94.253 31.4229 94.5277 31.5217 94.7576 31.719C94.936 31.8742 95.1123 32.1135 95.286 32.4374L94.5324 32.9304L94.3138 32.5713C94.2248 32.4258 94.1028 32.3248 93.9476 32.2684L93.7575 32.2402C93.5367 32.2402 93.364 32.3035 93.2398 32.4302C93.1152 32.5572 93.0532 32.7309 93.0532 32.9517C93.0532 33.0549 93.1212 33.1935 93.2573 33.3672C93.2902 33.4093 93.337 33.4563 93.3984 33.5081L93.7854 33.8323C94.3678 34.3206 94.6588 34.8183 94.6588 35.3254C94.6588 35.8654 94.4102 36.3211 93.9125 36.6921C93.5085 36.9925 93.1046 37.1427 92.7007 37.1427C92.3018 37.1427 91.98 37.0229 91.7357 36.7833C91.5341 36.5864 91.3625 36.2787 91.2214 35.8607ZM99.1725 32.3389H98.0103L98.1793 31.5499H101.307L101.138 32.3389H99.9791L98.979 37.016H98.1721L99.1725 32.3389ZM103.806 35.9595C103.933 35.9595 104.04 36.0053 104.126 36.0968C104.213 36.1884 104.257 36.2972 104.257 36.4242C104.257 36.476 104.254 36.5136 104.25 36.5368C104.221 36.687 104.138 36.821 103.999 36.9386C103.861 37.0558 103.714 37.1145 103.559 37.1145C103.428 37.1145 103.319 37.0678 103.232 36.9737C103.145 36.8796 103.102 36.767 103.102 36.6356C103.102 36.5886 103.104 36.556 103.108 36.5368C103.146 36.3819 103.233 36.2471 103.369 36.132C103.506 36.0169 103.651 35.9595 103.806 35.9595ZM110.602 33.4588H109.827C109.949 32.8765 110.212 32.3976 110.616 32.0219C111.043 31.6227 111.546 31.4229 112.123 31.4229C112.349 31.4229 112.562 31.4678 112.764 31.5571C113.159 31.7309 113.405 32.0288 113.504 32.4515C113.527 32.5503 113.539 32.651 113.539 32.7545C113.539 33.4165 113.21 34.0365 112.553 34.6138L112.018 35.0858L110.693 36.2342H112.905L112.743 37.016H108.763L112.075 34.087C112.197 33.9788 112.315 33.8543 112.426 33.7138C112.633 33.4554 112.736 33.1901 112.736 32.9163C112.736 32.6908 112.66 32.5149 112.507 32.3879C112.354 32.2615 112.163 32.1978 111.933 32.1978C111.473 32.1978 111.107 32.4117 110.834 32.8391L110.708 33.0856C110.703 33.0903 110.667 33.2148 110.602 33.4588ZM115.919 34.283C116.073 33.5081 116.329 32.874 116.686 32.3813C117.147 31.7425 117.722 31.4229 118.412 31.4229C118.976 31.4229 119.382 31.6553 119.631 32.1207C119.776 32.3929 119.849 32.6889 119.849 33.0079C119.849 33.5012 119.812 33.9261 119.736 34.283C119.581 35.0155 119.314 35.6493 118.933 36.185C118.478 36.8235 117.898 37.1427 117.193 37.1427C116.503 37.1427 116.064 36.8257 115.877 36.1919C115.815 35.9852 115.785 35.6776 115.785 35.2692C115.785 35.114 115.799 34.9475 115.827 34.7691C115.841 34.6797 115.871 34.5175 115.919 34.283ZM116.69 34.298C116.67 34.3673 116.646 34.4965 116.617 34.6844C116.569 34.9945 116.545 35.2269 116.545 35.3818C116.545 36.058 116.82 36.396 117.369 36.396C117.863 36.396 118.271 36.0699 118.595 35.417C118.839 34.9287 118.992 34.3839 119.053 33.7828C119.072 33.5996 119.081 33.4494 119.081 33.3321C119.081 32.576 118.809 32.1978 118.266 32.1978C117.821 32.1978 117.464 32.4258 117.196 32.8812C117.033 33.1628 116.927 33.3933 116.88 33.5717L116.69 34.298ZM122.299 34.283C122.454 33.5081 122.71 32.874 123.066 32.3813C123.527 31.7425 124.102 31.4229 124.792 31.4229C125.356 31.4229 125.762 31.6553 126.011 32.1207C126.156 32.3929 126.229 32.6889 126.229 33.0079C126.229 33.5012 126.192 33.9261 126.117 34.283C125.962 35.0155 125.694 35.6493 125.313 36.185C124.858 36.8235 124.278 37.1427 123.574 37.1427C122.883 37.1427 122.444 36.8257 122.257 36.1919C122.195 35.9852 122.165 35.6776 122.165 35.2692C122.165 35.114 122.179 34.9475 122.207 34.7691C122.221 34.6797 122.252 34.5175 122.299 34.283ZM123.07 34.298C123.05 34.3673 123.027 34.4965 122.997 34.6844C122.949 34.9945 122.926 35.2269 122.926 35.3818C122.926 36.058 123.2 36.396 123.75 36.396C124.243 36.396 124.652 36.0699 124.975 35.417C125.22 34.9287 125.372 34.3839 125.433 33.7828C125.452 33.5996 125.461 33.4494 125.461 33.3321C125.461 32.576 125.189 32.1978 124.646 32.1978C124.201 32.1978 123.844 32.4258 123.576 32.8812C123.413 33.1628 123.307 33.3933 123.26 33.5717L123.07 34.298ZM129.743 33.4588H128.968C129.09 32.8765 129.353 32.3976 129.757 32.0219C130.184 31.6227 130.687 31.4229 131.264 31.4229C131.49 31.4229 131.703 31.4678 131.905 31.5571C132.3 31.7309 132.546 32.0288 132.645 32.4515C132.668 32.5503 132.68 32.651 132.68 32.7545C132.68 33.4165 132.351 34.0365 131.694 34.6138L131.158 35.0858L129.834 36.2342H132.046L131.884 37.016H127.904L131.216 34.087C131.338 33.9788 131.456 33.8543 131.567 33.7138C131.774 33.4554 131.877 33.1901 131.877 32.9163C131.877 32.6908 131.801 32.5149 131.648 32.3879C131.496 32.2615 131.304 32.1978 131.074 32.1978C130.614 32.1978 130.248 32.4117 129.975 32.8391L129.848 33.0856C129.844 33.0903 129.808 33.2148 129.743 33.4588Z" fill="#6E6F6E"/>
<path fill-rule="evenodd" clip-rule="evenodd" d="M60.9116 33.7565H71.3793C71.5869 33.7565 71.7569 33.9268 71.7569 34.1347C71.7569 34.3426 71.5869 34.5126 71.3793 34.5126H60.9116C60.7037 34.5126 60.5337 34.3426 60.5337 34.1347C60.5337 33.9268 60.7037 33.7565 60.9116 33.7565Z" fill="#6E6F6E"/>
<path fill-rule="evenodd" clip-rule="evenodd" d="M145.929 33.7565H156.397C156.604 33.7565 156.774 33.9268 156.774 34.1347C156.774 34.3426 156.604 34.5126 156.397 34.5126H145.929C145.721 34.5126 145.551 34.3426 145.551 34.1347C145.551 33.9268 145.721 33.7565 145.929 33.7565Z" fill="#6E6F6E"/>
</svg>
