<svg width="30" height="30" viewBox="0 0 30 30" fill="none" xmlns="http://www.w3.org/2000/svg">
<rect width="30" height="30" rx="6" fill="#0094CB"/>
<path fill-rule="evenodd" clip-rule="evenodd" d="M6.6665 10.8334C6.6665 8.53217 8.53198 6.66669 10.8332 6.66669H15.8332C17.8736 6.66669 19.5714 8.13329 19.93 10.0698C21.8666 10.4285 23.3332 12.1263 23.3332 14.1667V19.1667C23.3332 21.4679 21.4677 23.3334 19.1665 23.3334H10.8332C8.53198 23.3334 6.6665 21.4679 6.6665 19.1667V10.8334ZM15.8332 8.33335C16.9217 8.33335 17.8477 9.02903 18.1909 10H8.47543C8.81862 9.02903 9.74465 8.33335 10.8332 8.33335H15.8332ZM18.3332 18.3334C19.2536 18.3334 19.9998 17.5872 19.9998 16.6667C19.9998 15.7462 19.2536 15 18.3332 15C17.4127 15 16.6665 15.7462 16.6665 16.6667C16.6665 17.5872 17.4127 18.3334 18.3332 18.3334Z" fill="white"/>
</svg>
