<svg width="41" height="41" viewBox="0 0 41 41" fill="none" xmlns="http://www.w3.org/2000/svg">
<path d="M17.8408 24.8838L24.7643 20.8962L17.8408 16.9087V24.8838Z" fill="#AAAAAA"/>
<path d="M20.5516 0.924805C9.52331 0.924805 0.580078 9.86804 0.580078 20.8963C0.580078 31.9246 9.52331 40.8678 20.5516 40.8678C31.5798 40.8678 40.5231 31.9246 40.5231 20.8963C40.5231 9.86804 31.5798 0.924805 20.5516 0.924805ZM33.0307 20.9167C33.0307 20.9167 33.0307 24.967 32.5169 26.9201C32.2289 27.9891 31.386 28.8321 30.317 29.1197C28.3639 29.6338 20.5516 29.6338 20.5516 29.6338C20.5516 29.6338 12.7597 29.6338 10.7862 29.0993C9.71712 28.8116 8.87421 27.9684 8.58623 26.8994C8.07213 24.967 8.07213 20.8963 8.07213 20.8963C8.07213 20.8963 8.07213 16.8463 8.58623 14.8932C8.87391 13.8242 9.73754 12.9605 10.7862 12.6729C12.7392 12.1588 20.5516 12.1588 20.5516 12.1588C20.5516 12.1588 28.3639 12.1588 30.317 12.6933C31.386 12.981 32.2289 13.8242 32.5169 14.8932C33.0514 16.8463 33.0307 20.9167 33.0307 20.9167Z" fill="#AAAAAA"/>
</svg>
